/* XPM */
static char *result[] = {
/* columns rows colors chars-per-pixel */
"49 50 151 2 ",
"   c #160500",
".  c #1C0700",
"X  c #1C0B01",
"o  c #1C0D0D",
"O  c #1E1505",
"+  c #1C140B",
"@  c #220600",
"#  c #220C02",
"$  c #241304",
"%  c #2A1502",
"&  c #251907",
"*  c #2D1A02",
"=  c #23150A",
"-  c #2E1308",
";  c #251A0B",
":  c #2B1D0D",
">  c #321D03",
",  c #321C09",
"<  c #2D1610",
"1  c #251C13",
"2  c #2B1D11",
"3  c #201B18",
"4  c #352106",
"5  c #3D2407",
"6  c #352109",
"7  c #3A240B",
"8  c #2E2212",
"9  c #332415",
"0  c #3A2716",
"q  c #3D2B11",
"w  c #2A1A25",
"e  c #41260D",
"r  c #442A0D",
"t  c #422D13",
"y  c #443115",
"u  c #4B3013",
"i  c #453419",
"p  c #4D351B",
"a  c #4C381D",
"s  c #55371D",
"d  c #533B21",
"f  c #74541B",
"g  c #564124",
"h  c #5A4324",
"j  c #5B4820",
"k  c #5C442A",
"l  c #5D4732",
"z  c #614628",
"x  c #634B2A",
"c  c #615229",
"v  c #6B532F",
"b  c #725226",
"n  c #7E5521",
"m  c #7E5B25",
"M  c #745328",
"N  c #7E5B2D",
"B  c #654C31",
"V  c #6E5630",
"C  c #6E5E34",
"Z  c #6E523A",
"A  c #735236",
"S  c #725A34",
"D  c #7D5B32",
"F  c #70543C",
"G  c #745B39",
"H  c #7A5D3B",
"J  c #756237",
"K  c #7D6334",
"L  c #75613A",
"P  c #7B623D",
"I  c #825420",
"U  c #835D25",
"Y  c #835E2A",
"T  c #8D5F2B",
"R  c #805E3B",
"E  c #856227",
"W  c #896227",
"Q  c #85622C",
"!  c #8A652D",
"~  c #8C692D",
"^  c #90652E",
"/  c #916B2D",
"(  c #856331",
")  c #8B6631",
"_  c #846836",
"`  c #8D6933",
"'  c #85653A",
"]  c #89673B",
"[  c #8D6C3A",
"{  c #916732",
"}  c #926C35",
"|  c #986F37",
" . c #936E39",
".. c #996E39",
"X. c #8E7137",
"o. c #957135",
"O. c #997636",
"+. c #95713B",
"@. c #9A743D",
"#. c #A0773E",
"$. c #836742",
"%. c #886643",
"&. c #836C44",
"*. c #8C6D43",
"=. c #846E48",
"-. c #8B6C4C",
";. c #946E42",
":. c #916E49",
">. c #8D7244",
",. c #8A744A",
"<. c #957444",
"1. c #9B7542",
"2. c #977842",
"3. c #9D7944",
"4. c #94744B",
"5. c #9C754B",
"6. c #96794B",
"7. c #9C7B4C",
"8. c #957350",
"9. c #997754",
"0. c #957D51",
"q. c #9C7B53",
"w. c #997B59",
"e. c #A27B45",
"r. c #A1774D",
"t. c #A37E4A",
"y. c #A87E4B",
"u. c #A47F53",
"i. c #9B7F67",
"p. c #9F814D",
"a. c #9E8254",
"s. c #9C8559",
"d. c #A58147",
"f. c #A4814B",
"g. c #A9834D",
"h. c #AF8B4F",
"j. c #A48353",
"k. c #AB8553",
"l. c #AC8A53",
"z. c #A4845A",
"x. c #AD875A",
"c. c #A78A5B",
"v. c #AF8E58",
"b. c #B08D57",
"n. c #B28D5C",
"m. c #B2915D",
"M. c #B18D64",
"N. c #AF9467",
"B. c #BD9A62",
"V. c #B99968",
"C. c #D4B485",
/* pixels */
"3 1 X : < 2 0 9 8 9 : : 9 : : 9 8 8 9 1 2 2 1 2 : 8 : = ; ; ; & = ; ; & O & = & ; ; 2 # - % X + + ",
"+ X   @ @ # % X # % % % % * % > * > > > , > % > 7 , > > 4 4 4 5 7 4 7 q t q t a p s d d d e 0 X o ",
"= X B -.A A $.,.R %.,.%.%.:.9.8.q.q.q.4.4.:.-.9.q.4.4.a.q.4.] *.*.%.*.4.4.*.>.9.[ 5.q.4.:.:.s.l   ",
"# , w.M.5.7.2.X.]  .1.X.` 1.5. .` +.1.;. .1.+. . .) [ 3.t.+.` [ [ ) ) ) Q Y U Y ) Y ( N D H -.B   ",
"- 5 *.Y n ~ ~ ~ ~ ~ ~ ~ E ~ ~ E ` ` | [ ` <. .) _ m Q X.+.2.2.p.+.<.+.X.[ [ ' Q ' [ <.K K _ ,.j X ",
", 5 q.+.Y ^ o.~ o.o./ ~ ~ / ~ ~ 2. .[ [ [ ` ) ) ` N N ( ( X.2.2.1.<.[ [ X.[ ) ( ( *.X.>.<.K ,.c # ",
": t a.O.o.e.d.E +.} ` ~ X.~ } @.} ` | 1.1. .( Q Q m Q Q Q ` +.2.1.;. . .+.+. .` ( p.+._ N K a.j O ",
"% u _ m @.) ~ ` ` } } { } } ` { Q W } @. ...{ Q E m Q ) ) ` +.+.{ { [ `  .+. .} @.d.X.Q f Q a.c # ",
": r r.{ { Q ) } @.} } } +.+.` ` | 1.[ +. . . .( / X.} ) ` ( ) ` ( ) ` R ) ..) @.3.<.[ N K 6.s.C X ",
"& 5 r...} ` +.} +.@.@.} } +.} o.3.1. .+. .@. .` ) ) ` ! ` ! ) `  .) ] T T ` ! 3.t.+.( b <.c.,.J X ",
": e r.^ Q ( ` ` +.@.+.` } @.+.` ` ) ) )  .1.` ! +.) ) `  .`  . . .` R Y Y ) ! +.d.<._ D ] >.K C % ",
"% r  .I ` ) ! | +.@.` ` } +.+.! ` } ! Y ) | +.` +.` [ `  .`  . .`  .{ ) Y ] ` @.h.v.<.4.D b S L : ",
"& r ;.T @. .) +.} @.` ! ` `  .` +.@.` ` } } @.| ` (  .` ( ( { ` T [ 1.;._ ) +.3.l.B.7.6.] M K ,., ",
": r r.{ ..` ) ` ` } ` ` } } } o.}  .! } | ~  .` ` ) ` ) { ` [ ) ` ` ` 1.} ) [ 3.d.3.j.j.<.+.<.s.> ",
": e 1.{ } ) ` { ` } } } +.+.} o.o.} ! ~ o.~ } } } ` ` ) ;. .} ` [ Y ! 1. ._ _  .3.[ k.m.b.l.z.s.- ",
"% u 5.{ ..` ) } ` } @.o.{ } ` @.~ } +.~ o.@.} ! ) ` } ` | Y Y  . .` ` 2.` E ) <.[ <.7.l.m.b.a.0., ",
"- u r...e.Q +.o.` ! @.@.} ~ ~ } } +.o.` { +.} U W E `  .[ ( <.t.[ [ X.X.[ _ ` ` } 2.3.l.m.m.j.<.& ",
"< e u.1.| _ E E E ! ` ` @.3.` ! } } ` ` { +.} ! W ~ ) ) (  .t.7.+.2.+.X.+.2.} } @.3.2.7.3.k.j.j.& ",
"$ e M.y.! ! +.o.| ( } +.+.@.@.} } ! { ` ` +.+.+.~ Q ! 1.[ ( ( ' +.2.2.+.+.[ ` } o.2.7.f.t.t.f.6.6 ",
"= t u.1.( ` 3.o.} Y ` | ~ ` +.+.+.` } ~ ` } ~ ` @.+.` ) N ( [ 7.7.[ 3.f.X.) } ` } +.7.h.e.@.7.7.& ",
"- 7 5.) Y +.[ W ! ` ! ! o.@.@.+.+.! ` ~ { | ! ` ~ +.+.Q ( [ 7.<.2.[ +.f. .` ` ! o.+.3.t.+.} 1.6.> ",
"= t 5.{ ! ! ` ^ ! } ` ` } [ +.@.` ! +.+.}  .+.@.` [ _ K ' ( [ [ ) +.[ _ [ ` U ` ^ | @.@.+.@.t.;.4 ",
"< t 5.` { ` @.{ ~ ~ ` } ~ n ! } +.+.t.3.} ) ` o.Q X.[ [ [ [ [ [ ) <.X.( } ! Y +.| | @.+.o...e.;.* ",
"; e M.{ ` +.} Q ( @.` } e.@.[ } } } } o.} ` ` ! _ +.+.2.[ [ +.<.<.+.) )  .) ! | #.} 1.t.#.} @. .> ",
"1 7 z.1.f.+.+.U U ! } } 3.!  .1.+.+.}  .@.` W } o.@.f.p.` o.[ +.j.1.`  .1.[  .) ` } @.@...T 1.[ 4 ",
"; q a.3.3.Q +.{ ` Y |  .U U e.@.} +.@.} `  .O.} ~ ` +.+.[ [ [ +. .1.+. .1.<.<. .O.+.1.t.e.| ;.{ 4 ",
"O 7 z.g.d.` ` #.} ~ ` ` Y E } ) E ) } } ~ ! { ~ { ^ ` ` X.+.3.+.) 3.+.` +.1.`  .@.+.| 3.o.^  .} 6 ",
"& 4 >.f.l.2.} { +.} ! } +.` U E ! } } ` } ` ~ o.~ ~ E ! +.+.+.X. .3.+. . .1. . .+.} ` { ~ ~ ..1.7 ",
"; % 4.+.3.t.U { +.} | 3.` ` ` } ` +.} E ! ` ~ } W W E ` X.o.+.` } } } @.} } } +.~ ~ ` E } o.e.1.4 ",
"O > 7.3.2.@.~ @.} ) +.+.U ! } } ` ! ! E U U E Q / ~ W ^ ~ } +.+.` ! | 3.+.~ } +.} ` } Y @.e.g.e.6 ",
"; * 4.@.t.g.o.+.` ` } ` Y ! E ! } ! ` | { ~ ~ ~ | W ~ ` E ` +.+.} } +.e.@.) } +.}  . .! @.d.g.3.6 ",
"; * *.3.t.+.@.@.| ! ` ` E ! ! ` ` 1.1.` +.o.} } / I o.@.} | @.} } +.~ ` } Q } } ~ }  .` +.f.t.3.6 ",
"& * >.@.+.[ } | +.^ } } +.} ! ) ~ } ......{ @.W e.{ } @.3.@.f.` ` e.t.o.} ! +.e.} {  .+.} #.t.7.7 ",
"& * <.3.+.+.[ ~ +.{ } } } o.} } { ~ ! ~ | ..@.{ { @.@.+.g.e.o.+.` +.@.@.3.} +.+.} ~ ` +.o.#.e.3.7 ",
"; * 4.1. .+.@.{ ` ` } ` ` +.+.+.{ ^ } } @.e.1.@.@.{ ^ } o.1.+.} o.` +.@.+.} @.} ^ ` ` +.#.e.t.j.7 ",
"; > 6.2.` | e.O.~ ! } ` } } +.+.{ | +.} | 1.e.} @.} } } } 1.o.~ o.} +.+.` o.t.+.o.+.o.+.e.e.t.j.q ",
"= % z.t.( ! o.@.` { } +.o.} }  .@.@.{ +.@.@.@.~ } } @.@.3.@.+.} }  .+.@.} +.3.} ^ +.+.| #.e.e.t.q ",
": % 9.1.! ) } } o.+.+.@.+.} +.+.#.+.{ d.e.| +.} ~ { } +.@.o.@.} 3.@.+.3.+.} } ` ~ } [ o.#.#.3.t.0 ",
"2 % 4. .Q +.+./ +.@.+.+.+.+.@.@.} } } y.@.{ ` { Q +.~ { @.} ! [ 3.@.o.+.} } ~ ! } +.+.} @.@.@.3.i ",
"= * q.1.( +.+.} o.+.} } o.@.t.@.+.o.} o.} @.{ } } @.` e.! ! +. .` @.} } } } ! ! @.} ` { | } 1.7.i ",
"= $ [ e.) o.o.#.+.+.} } +.+.} @.@.+.@.@.} ` ` +.3.d.` +.! { +.` ` } f.t.+.1.+.! / ~ <.} ` @.+.1.i ",
"= * *.e.1.e.O.@.+.} +.+.} +.+.} ! ` +.} } @.} } g.@.3.} @.t.+.U +.+.+.+.o.+.` } } }  .) } Q t.k.i ",
"O % ] @.3.3.o.#.+.} @.@.+.@.@.} o. .+.{ ` +.+.o.+.+. .+.+.l.1.! @.3.` ~ ! ` [ } @.1.] ` ) { 1.k.t ",
"; % *.t.3.} ^ ..} ` @.@.} +.+.} } +.@.} } ` ` } ` ` ~ ~ [ o. .T } ` ` ` ~ [ 1.`  ... .1.{ ..{ x.t ",
"= $ ' g.<. .{ } ) | @...+.+.+.+.o.@.+.+. . .| @.+.! ` !  . .[ 1.~ ` ` ` T ( @.|  .) ! Y { U T t.u ",
"+ % $.m.]  .o.| ` } | } o.+.| @.| @.} ^ } | @...o.} Q o...} } 1.| t.@.Y Y { {  .@.1.) e.g.`  .q.t ",
"+ # P V.' ` ! } } ) { ^ ~ ^ { { ^ @.{ { | } { W ~ { { ^ ..U { { T 1.@.) { { U U e.k.1.u.e.[ 7.N.9 ",
"+ X H C.z.c.@.y.g...@.e...e.#.e.y.g.e.y.y.1.#.e.@.@.y.+.e.y.1.e.1.{ e.y.y.y.r.k.k.n.n.u.x.r.6.=.# ",
"o X 6 k Z Z G P H L &.,.,.=.=.=.P $.P S S S V V S H L L G V B B z z B z z k k h h h d a a t 0 % . ",
"w o . # @ @ # % % # $ - % $ # # $ # $ @ X # # @ # # # # . . . . . @ @ # @ . . . X       # . #   $ "
};
