/* XPM */
static char *_ed49f6e1e2349d1a914e076e68e87c1RDDnZcUpKlgapceI[] = {
/* columns rows colors chars-per-pixel */
"75 50 229 2 ",
"   c None",
".  c #2C0B05",
"X  c #270704",
"o  c #330E06",
"O  c #310F08",
"+  c #361206",
"@  c #3B1406",
"#  c #361409",
"$  c #3C170A",
"%  c #3D190B",
"&  c #441C0A",
"*  c #461B09",
"=  c #47210E",
"-  c #4C220D",
";  c #4D280F",
":  c #53260C",
">  c #53290E",
",  c #592B0D",
"<  c #522807",
"1  c #5D310F",
"2  c #4D2511",
"3  c #4E2913",
"4  c #532911",
"5  c #5A2D12",
"6  c #522711",
"7  c #5E3012",
"8  c #63310D",
"9  c #6A350A",
"0  c #6C3508",
"q  c #7B3E0A",
"w  c #773C0B",
"e  c #643511",
"r  c #6B3812",
"t  c #7B400C",
"y  c #7A4413",
"u  c #784617",
"i  c #DD350E",
"p  c #E43C0E",
"a  c #E3340C",
"s  c #824109",
"d  c #8F4C0B",
"f  c #8A470C",
"g  c #944A0B",
"h  c #9A4B06",
"j  c #844A13",
"k  c #8E4D10",
"l  c #814D1D",
"z  c #8B5318",
"x  c #935717",
"c  c #935A1C",
"v  c #9B5E19",
"b  c #9B5A13",
"n  c #A4540A",
"m  c #B75E0B",
"M  c #9D621C",
"N  c #9D6017",
"B  c #B9630C",
"V  c #A3651D",
"C  c #A86719",
"Z  c #B16B1D",
"A  c #B6711A",
"S  c #BB761B",
"D  c #BE7B1C",
"F  c #824D25",
"G  c #BE7D24",
"H  c #B77926",
"J  c #B16E33",
"K  c #B36724",
"L  c #E4410E",
"P  c #EA4B0E",
"I  c #EA560D",
"U  c #EA590F",
"Y  c #E94C15",
"T  c #E94E19",
"R  c #E94614",
"E  c #EB5D13",
"W  c #EC5315",
"Q  c #F0571A",
"!  c #C96B0D",
"~  c #D46B0A",
"^  c #DB6D09",
"/  c #CC710E",
"(  c #DB790E",
")  c #D4710C",
"_  c #C36811",
"`  c #CB7310",
"'  c #C47718",
"]  c #D47414",
"[  c #DC7714",
"{  c #DF7B11",
"}  c #D67A19",
"|  c #E9620F",
" . c #F1680C",
".. c #E87A09",
"X. c #F3730C",
"o. c #F67D0D",
"O. c #EF6212",
"+. c #EE6B1A",
"@. c #F2691C",
"#. c #F16618",
"$. c #E37E11",
"%. c #EE7516",
"&. c #F37415",
"*. c #F47419",
"=. c #F67A17",
"-. c #CB542A",
";. c #EE5A22",
":. c #F25C25",
">. c #F25D2B",
",. c #F15626",
"<. c #F15B30",
"1. c #D36221",
"2. c #C27C20",
"3. c #CD622B",
"4. c #F36325",
"5. c #F2642B",
"6. c #F36C2C",
"7. c #F36F27",
"8. c #F37423",
"9. c #F2742B",
"0. c #F37B2C",
"q. c #F37B26",
"w. c #F26533",
"e. c #F26B32",
"r. c #F37235",
"t. c #F27439",
"y. c #F37A37",
"u. c #EF7A26",
"i. c #DC8819",
"p. c #CC851C",
"a. c #EC840E",
"s. c #E5800F",
"d. c #FA8506",
"f. c #F4850D",
"g. c #F88509",
"h. c #F58B0D",
"j. c #F98B0D",
"k. c #F68407",
"l. c #FC920D",
"z. c #F2910F",
"x. c #EB8C15",
"c. c #ED8C1A",
"v. c #E88617",
"b. c #F38212",
"n. c #F58C13",
"m. c #F88D12",
"M. c #F4821D",
"N. c #F58C1B",
"B. c #F98516",
"V. c #EE941B",
"C. c #ED981E",
"Z. c #E99217",
"A. c #F29414",
"S. c #FA9314",
"D. c #F49B16",
"F. c #F4941B",
"G. c #F9941A",
"H. c #F39B1C",
"J. c #F9991B",
"K. c #F5A31D",
"L. c #F7AA1F",
"P. c #C48124",
"I. c #C88526",
"U. c #D68C22",
"Y. c #D28E2B",
"T. c #DB9426",
"R. c #D69128",
"E. c #DD9629",
"W. c #DF9929",
"Q. c #CE8134",
"!. c #DA8B3B",
"~. c #D88631",
"^. c #DF9F36",
"/. c #EC8C23",
"(. c #E28B2E",
"). c #E2832B",
"_. c #F38323",
"`. c #F3822C",
"'. c #F48B2C",
"]. c #F28F22",
"[. c #EF9523",
"{. c #EC9B23",
"}. c #E39B2C",
"|. c #EB9E2B",
" X c #E99328",
".X c #F29422",
"XX c #F89521",
"oX c #F29D22",
"OX c #F99C23",
"+X c #F4952B",
"@X c #F49B2B",
"#X c #E48637",
"$X c #F38A31",
"%X c #F48A37",
"&X c #E79C37",
"*X c #F39534",
"=X c #F49A33",
"-X c #F39C3A",
";X c #EDA226",
":X c #E6A12F",
">X c #ECA22B",
",X c #F4A524",
"<X c #F5AA25",
"1X c #F3A52B",
"2X c #F4AA2D",
"3X c #F5AD2E",
"4X c #F4AB2C",
"5X c #F9A627",
"6X c #F7B12E",
"7X c #EEA630",
"8X c #F3A533",
"9X c #F3AB30",
"0X c #F3AD32",
"qX c #F4AC31",
"wX c #F5AE32",
"eX c #F5AE34",
"rX c #F4AD33",
"tX c #F3AE39",
"yX c #F3A138",
"uX c #F5B134",
"iX c #F4B23B",
"pX c #F8B13A",
"aX c #DC9152",
"sX c #EB9E4F",
"dX c #EA9F51",
"fX c #F5B442",
"gX c #F7B948",
"hX c #E8A446",
"jX c #F0B26C",
/* pixels */
"                                                                                                                                                      ",
"                                                    pX                                                                                                ",
"                                                  pXeX3XeX                                                                                            ",
"                                          fXiXeX2X2X4XuX2X2X2X                                                                                        ",
"                                          fXeXqXw.e.r.1X5X0X3XuX3XeX                                                                                  ",
"                                          8XqX9.eX3XeX*Xw.+XuX4X3X3X,XqX                                                                              ",
"                                        eXeXqXw.0X0X0X0X9X@X6.0.3X,X1X,XtX5X                                                                          ",
"                                        eX2X*X1X0XiX0X3X2X0XuX2X9.9.,X2X<XK.H.5X                                                                      ",
"                                      eX3X<X,.tX0X0XfX0X<X4X4X3X3X<X_.:.@XK.D.1XD.1XqX                                                                ",
"                                      eXqXoX+X4X2X:X^.iX0X9X2XeX,XK.5X,X+X4./.,X1X,X1X2XpX                                                            ",
"                                      <X2X>.5X4X2Xu $ ; I.eXeX0X4X4X4X4X,XK.oX5.9.1X1XoXH.oX1X                                                        ",
"                                    2X4X1X0.4X4X<X,Xj % # V <X,X;X4X,X1X4X1X,X,X>X9.5.F.,X1XD.H.J.                                                    ",
"                                    eX4Xt.<X0XtX9X9X% l >X4X,X; H 3X1X1X,X<X,X,X1X8X;XM.Q M.D.A.J.K.J.5X                                              ",
"                                  pX4X,X6.3X<X<X2XG % ;X4X2XU.+ E.0X1X<X2X9X,XK.,X1X,XH.{.N.,.q.S.S.XXJ.OXOX                                          ",
"                                  <X1X_.1X9XeX,X9X2 ; <X4X,X, # <X0X4Xc , Z K.K.,XC.H.H.H.D.C.H.@.@.XXoXOXOXOX5X                                      ",
"                                  9X<X,.,X1X1X<XE.# R.<X9X;X2 G ,X2X1 - 8 $ {.;XZ.,XK.H.H.oX,XH.H.J.*.:.XXS.S.J.OXJ.                                  ",
"                                {.F.[.c.H.oX5X1X9 & 1X,X0Xj 4 4XuXV . R.1X1X1XH : D.C.oX,XH.D.H.F.D.J.XX=.W B.S.OXS.S.J.OX                            ",
"                            gXfXyX(.3.] ] ~ ^ { X n a.a.C.$ d C.;X7 7 1X,X>XoX* j A.+ 1 V.H.C.H.A.H.,XH.J.J.m.W =.S.G.S.G.G.G.                        ",
"                            pX6XiXiX0XiXiXfXuX0X&X:X&X~.V 2 _ ~ h X ] $.v.V.' $ {.= * {.oXC x x.H.H.G.D.J.S.S.J.S.@.4.m.S.S.m.S.OX                    ",
"                          pXiXuXiXiXuXiXiX6XuX6XuX<X6X<X<X<X3XpX3X>X7XsX^.!.F r # $ ^ ( ..o o . 9 n.z.XXl.S.l.S.S.l.R =.W M.m.S.n.G.                  ",
"                      gXiX-X9.y.r.y.y.%X=X@X9X3X6XuX6X6X<X<X<X4X4X6XuX4XL.2X4XK.K.;X8X>X:XI.!.Q.J } 3 B ....a.n.k.B.&.A.S.=.T _.G.G.                  ",
"                      pXuXt.uX<XiXpXuXuXpX5X=X$X9.7.4.5.y.'.@X1X4X<X<X6X,X,X;X<XK.D.A.H.oXH.oXV.A.H.G.S.A.G.N.].*X#XK s G.S.S.#.N.G.                  ",
"                    pXpXiX=XpX6X6X4XL.L.uX4XuX6X<XpX4XuX6X6X4X1X+X_.8.5.4.5.8.`.+X[.oXH.D.C.C.H.A.A.z.A.S.N.j.S.m.j.Z ^ n ( f.B.B.N.OX                ",
"                      uX8X8XiX0X<X6X6X6X<XuX<X<XuX<X<X6X6X<X<X4X5X<XK.<X,X4X,X,X@X@XM.8.@.Q Q Q @. .&.f.g.m.g.j.j.m.dXh 9 _ ] Y m.N.F.                ",
"                    tX4X-XrXpX3X6X6XuXpX<X3X<X4X6XpX<X<X<X<XpX<X<X3X3X6X<XL.4X,X,XK.K.H.C.H.n.C.C.A.Y .X=.*. .P  .S.l.c...f.b.E j.N.G.                ",
"                      pX$X3X<XuXV u V P.:XuX<X0X4X<X6X<X6X4X4XL.<X<X4XK.<X<X0X,XK.K.H.K.H.z.C.V.H.H.R j.m.m.J.G.O.S.j.j.].(.I B.j.G.@X                ",
"                    eXuX0.6XuX3XV 8 ; = c 3Xz = 4XL.uXW.N S 2X<X;X<X<X4X4XpX3X0X4XH.D.H.H.D.V.H.V.V.p ` n f.a.$.X.j.j.d.m.^ p j.j.j.                  ",
"                    qXeX4.2X0X3XiXR.; 1X0XpXe 5 6X<XT.= % % 0X' - 5Xt % <X3Xu N ' |.;XC.V.H.V.Z.z.n.Y f ` w v.q I d.j.j.N.1.b.n.N.G.                  ",
"                    pX6X>.0XuX0X4XG 6 0X2X1Xe 5 uXuX> 5 4X2X3XM 5 ,X> V <X,X$ 9 : P.|.o $ $ + C.h.h.E x.V.j.( j.p g.j.m.XX-.f.n.N.                    ",
"                    eXiX<.iX6X0XuXN % <XuX4X5 l 3X2X2 A 4X4X4Xz > x + ,X<X:X% {.K.1X{.Z.+ 0 b V.Z.n.X.< ) ..B j.a m.m.j. X| N.n.F.                    ",
"                    tXiX5.3XuXeXiXu = 3XpX3X; M 0XC.# {.<X4X0X> 6 : p.<XpXi.& ;X,XK.,X<X@ C {.n.z.x.a.B a.$.! c.a j.j.j.).b.n.n.                      ",
"                    eXpXr.3X0XiX3Xe ; uX3X3X= G uXR.# ;X3X4XuX& & > 4X4X4XS , x C K.4XC.@ / D.V.z.%.h...m.d.k.g.P d.d.o.-X$.n.F.                      ",
"                    9XeX$X0X0XuXuX5 u 4X<X9X7 R.3XU.& tX<X,X0X7 b & >X3X3Xv * j > 2X4X|.+ i.V.n.x.| v.` h A.s d.O.j.o.d.(.M.x.+X                      ",
"                    tXrX=XiXuXtX0X2 c 3X0X2X, |.0X^.= W.9X4X0X- S * C eX4Xy * 5X1X4X,XU.@ x.H.A.h.I x.h.s.w t m.X.m.j.j.aXf.N.                        ",
"                    eX8X1X0X0X3XuX; G uXiXT.5 ;X,X0X+ - H ^.0X& U.j 6 ,X3X8 = ,X,X,X1XA + D.V.Z.x.Y B ( j.h.k.o.o.m.j.m.aXf.F.                        ",
"                    eX=X8XrX3X2X4X0XuX0X4X0X}.<X4XpX;Xy $ R.0X$ }.Y.+ 1X3X& < A U.,X1Xz . @XC.V.A.Y t ' B f.t  .j.j.m.n.^ m.                          ",
"                    1X`.<XtXiX3X3X3X4X4X4X3X<XuX4X3X<XL.<X<X4X{.K.4XD 4X5X0 > * e ,XK.e o {..XV.z.T v.A.s.d a.P j.j.n.G.).XX                          ",
"                  9X8Xe.9XiXfX9XuX0XuX0X0X3X<X4XL.<X<X<X<X<X<XK.K.K.3X0X4X,X<X<X,XH.;XC.i.V.A.C.A.E f q 1 g j.L j.j.j.+X[                             ",
"                  fX8X`.-XtXeX2XuX4X<X0X<XeXuX4X3X4X<X<X1X4XK.K.K.<X<X,X4X<X2X9X,X,X,XC.H.D.H.H.[.%., _ 0 c.B i m.N.A.].).                            ",
"                    tX0X*Xt.e.r.0.%X=X@XtX<X;X<XiXuX2X<X<X,X<XK.<XL.K.K.2X<X3X,X2X<X1XD.H.H.oX{.n.].A.n.A.$.m.a m.S.j.jX(.                            ",
"                      eXfX1X2X0XuX9X,X-X'.u.6.w.5.6.9.'.+XOX1X5X2X2X,X,X,X3X,X<X0X1X,X{.H.H.C.[._..Xt t m k N.L j.n.m.sX                              ",
"                      tX0X8X9XtX0X8X0X8X<X5X5X2X<X,X<X1X8X+X'.q.6.5.:.4.9.q.+XoX8X9XoX,X>XC.H.H.%.H.0 } 9 a.` U g.g.n.                                ",
"                      pXeXiXpX9X0XiX2X2X,X,X,X2X<XK.,X2X,XK.K.<X,XK.<XK.1X,XH..X'.0.7.5.>.Q 6.u.;.N.N.c.g.] I o.n.n.j.                                ",
"                                      fX2XpX3X0X3X<X<XpX3X4X,X,X,X;X,X<X,X5X9X2X>XH.H.C.@X|.oXH.oXM.M.&.E +.b.b.j.n.OX                                ",
"                                                          pX2XpX3XuX<X5X,XK.1X5X,X1X1XoX|.@XOXoXXXG.J.XXg.j.f.j.G.                                    ",
"                                                                            2X1X5XeX<X<XrX8X1X1XH.J.G.G.m.G.m.S.                                      ",
"                                                                                                2XOXOXXXS.J.n.                                        ",
"                                                                                                                                                      ",
"                                                                                                                                                      ",
"                                                                                                                                                      "
};
