/* XPM */
static char *result[] = {
/* columns rows colors chars-per-pixel */
"50 50 203 2 ",
"   c #892709",
".  c #9E2607",
"X  c #AB3A07",
"o  c #C73B19",
"O  c #9C4E0D",
"+  c #B54806",
"@  c #BA5700",
"#  c #BE5D00",
"$  c #B25F13",
"%  c #BE6202",
"&  c #BD6B06",
"*  c #BA680A",
"=  c #BA6919",
"-  c #885D2E",
";  c #905E29",
":  c #8C4233",
">  c #9B4738",
",  c #A64534",
"<  c #A84837",
"1  c #B54936",
"2  c #BC4E3A",
"3  c #B44734",
"4  c #AF523F",
"5  c #9A692A",
"6  c #A46E2B",
"7  c #A8742E",
"8  c #B1792C",
"9  c #C7460F",
"0  c #C94B0E",
"q  c #CB4B15",
"w  c #CA5815",
"e  c #D15913",
"r  c #D25319",
"t  c #C56B06",
"y  c #C76501",
"u  c #C2720B",
"i  c #CB790F",
"p  c #CB7208",
"a  c #D47502",
"s  c #D57B04",
"d  c #D37C0E",
"f  c #D8681B",
"g  c #CC7A12",
"h  c #C27510",
"j  c #D37F17",
"k  c #CE452B",
"l  c #CC4E22",
"z  c #DA482F",
"x  c #D6482E",
"c  c #CD5624",
"v  c #D25325",
"b  c #C34A34",
"n  c #C4483B",
"m  c #D64B32",
"M  c #DB4E34",
"N  c #CE523B",
"B  c #D45434",
"V  c #DB5036",
"C  c #DF523A",
"Z  c #D85A3F",
"A  c #E04F34",
"S  c #E2553C",
"D  c #E3593E",
"F  c #E5553A",
"G  c #DB6D27",
"H  c #DE7323",
"J  c #DD7E26",
"K  c #D27A23",
"L  c #E37D28",
"P  c #BC5A47",
"I  c #CD5C48",
"U  c #DF5D42",
"Y  c #E55B43",
"T  c #E65A44",
"R  c #CB644A",
"E  c #D66751",
"W  c #E96247",
"Q  c #EB644A",
"!  c #E66A4F",
"~  c #F3664D",
"^  c #EE6C52",
"/  c #E66953",
"(  c #F16D54",
")  c #F86D55",
"_  c #EC7156",
"`  c #E9755C",
"'  c #F47157",
"]  c #F4745A",
"[  c #F9755B",
"{  c #C97561",
"}  c #ED7B61",
"|  c #EC7462",
" . c #F27964",
".. c #BB822F",
"X. c #BA8434",
"o. c #DC8209",
"O. c #CA8116",
"+. c #D48515",
"@. c #CE8522",
"#. c #D68824",
"$. c #DC9225",
"%. c #D9942D",
"&. c #C48A35",
"*. c #C58831",
"=. c #CF9138",
"-. c #D19336",
";. c #DD9B37",
":. c #DC9A3A",
">. c #DC9733",
",. c #E4842F",
"<. c #E2882A",
"1. c #E39B26",
"2. c #E3972A",
"3. c #E39A2A",
"4. c #EB9D2A",
"5. c #E88933",
"6. c #E89737",
"7. c #F39A38",
"8. c #EAA32E",
"9. c #EDAC2F",
"0. c #F0AC2D",
"q. c #E6A335",
"w. c #ECA634",
"e. c #EBAB36",
"r. c #ECA639",
"t. c #E4AC3A",
"y. c #EBAD3A",
"u. c #E5A739",
"i. c #F1AF33",
"p. c #F2AE3B",
"a. c #FCAB3D",
"s. c #EEB13D",
"d. c #F3B33C",
"f. c #F8B53C",
"g. c #F5B237",
"h. c #C59F5C",
"j. c #EAAF45",
"k. c #F6A141",
"l. c #FAAB46",
"z. c #EEB442",
"x. c #EFB845",
"c. c #EEB34A",
"v. c #EDBA4D",
"b. c #F2B542",
"n. c #F4B946",
"m. c #F5BC4A",
"M. c #F9BD4B",
"N. c #FBB747",
"B. c #EFBE54",
"V. c #E9B352",
"C. c #FCBE51",
"Z. c #EE826A",
"A. c #F5856B",
"S. c #FB816B",
"D. c #F78267",
"F. c #FC8C73",
"G. c #F78471",
"H. c #EDAA63",
"J. c #FEC245",
"K. c #F6C04E",
"L. c #FAC24E",
"P. c #F5C453",
"I. c #FBC452",
"U. c #FCC956",
"Y. c #F6CB5F",
"T. c #FECD5B",
"R. c #F7C75C",
"E. c #FFD157",
"W. c #FED25E",
"Q. c #FEDA5D",
"!. c #E5C26D",
"~. c #F5C662",
"^. c #F5CC63",
"/. c #FFCF60",
"(. c #F6CD6A",
"). c #F3C66B",
"_. c #FED463",
"`. c #FFDB64",
"'. c #FED669",
"]. c #FDD96B",
"[. c #F6D064",
"{. c #E5CD7B",
"}. c #F3CC74",
"|. c #FCDC73",
" X c #FADA7A",
".X c #F7D679",
"XX c #FBE077",
"oX c #E09D8F",
"OX c #F79681",
"+X c #EFCF81",
"@X c #F7DD8A",
"#X c #F5DE87",
"$X c #E7D795",
"%X c #FAE482",
"&X c #FEEC89",
"*X c #FEF28E",
"=X c #FBEC91",
"-X c #FDF59E",
";X c #FFF8A7",
":X c #EBEABE",
">X c #F7EFB7",
",X c #E7E3C1",
"<X c None",
/* pixels */
"<X<X<X<X<X<X<X<X<X<X<X<X<X<X<X<X<X<X<X<X<X<X<X<X<X<X<X<X<X<X<X<X<X<X<X<X<X<X<X<X<X<X<X<X<X<X<X<X<X<X",
"<X<X<X<X<X<X<X<X<X<X<X<X<X<X<X<X<X<X<X<X<X<X<X<X<X<X<X<X<X<X<X<X<X<X<X<X<X<X<X<X<X<X<X<X<X<X<X<X<X<X",
"<X<X<X<X<X<X<X<X<X<X<X<X<X<X<X<X<X<X<X<X<X<X<X<X<X<X<X<X<X<X<X<X<X<X<X<X<X<X<X<X<X<X<X<X<X<X<X<X<X<X",
"<X<X<X<X<X<X<X<X<X<X<X<X<X<X<X<X<X<X<X<X<X<X<X<X<X<X<X<X<X<X<X<X<X<X<X<X<X<X<X<X<X<X<X<X<X<X<X<X<X<X",
"<X<X<X<X<X<X<X<X<X<X<X<X<X<X<X<X<X<X<X<X<X<X<X<X<X<X<X<X<X<X<X<X<X<X<X<X<X<X<X<X<X<X<X<X<X<X<X<X<X<X",
"<X<X<X<X<X<X<X<X<X<X<X<X<X<X<X<X<X<X<X<X<X<X<X<X<X<X<X<X<X<X<X<X<X<X<X<X<X<X<X<X<X<X<X<X<X<X<X<X<X<X",
"<X<X<X<X<X<X<X<X<X<X<X<X<X<X<X<X<X<X<X<X<X<X<X<X<X<X<X<X<X<X<X<X<X<X<X<X<X<X<X<X<X<X<X<X<X<X<X<X<X<X",
"<X<X<X<X<X<X<X<X<X<X<X<X<X<X<X<X<X<X<X<X<X<X<X<X<X<X<X<X<X<X<X<X<X<X<X<X<X<X<X<X<X<X<X<X<X<X<X<X<X<X",
"<X<X<X<X<X<X<X<X<X<X<X<X<X<X<X<X<X<X<X<X<X<X<X<X<X<X<X<X<X<X<X<X<X<X<X<X<X<X<X<X<X<X<X<X<X<X<X<X<X<X",
"<X<X<X<X<X<X<X<X<X<X<X<X<X<X<X<X<X<X< 2 b 1 < , > > : <X<X<X<X<X<X<X<X<X<X<X<X<X<X<X<X<X<X<X<X<X<X<X",
"<X<X<X<X<X<X<X<X<X<X<X<X<X<X<X<X<XP N z M z z z m k b 1 , > <X<X<X<X<X<X<X<X<X<X<X<X<X<X<X<X<X<X<X<X",
"<X<X<X<X<X<X<X<X<X<X<X<X<X<X<X<XP N M B V V V V V V V A A m b 1 < <X<X<X<X<X<X<X<X<X<X<X<X<X<X<X<X<X",
"<X<X<X<X<X<X<X<X<X<X<X<X<X<X<XR Y U Z D D D D D T S S S A F A F V N 2 , <X<X<X<X<X<X<X<X<X<X<X<X<X<X",
"<X<X<X<X<X<X<X<X<X<X<X<X<X<XE Q W W Q Q W W W W T T T T D D D S T F D Y I P <X<X<X<X<X<X<X<X<X<X<X<X",
"<X<X<X<X<X<X<X<X<X<X<X<X<X` ( ( ^ _ ^ ~ ~ Q Q Q Q Q ( ( _ ( ' ' [ [ [ ) ~ T n <X<X<X<X<X<X<X<X<X<X<X",
"<X<X<X<X<X<X<X<X<X<X<X<X} ' ( ' ' ] ] } D.A.F.F.F.F. . .( Q T S z k o o q e q . <X<X<X<X<X<X<X<X<X<X",
"<X<X<X<X<X<X<X<X<X<X{ Z.D.A.F.F.F.F.F.G. .| / Z B l q o 0 0 e f f H L 7.N.J.f.f <X<X<X<X<X<X<X<X<X<X",
"<X<X<X<X<X<X<X<X<XoXOXA.} _ ! U B v v v r q f L 6.a.l.N.N.L.U.E.E.E.W.Q.Y.U.U.a.+ <X<X<X<X<X<X<X<X<X",
"<X<X<X<X<X<X<X<X<XR l c H ,.5.5.6.k.M.C.I.I.E.W.W.W.W.W._.W.W._././.c.m.T.U.P.J.H <X<X<X<X<X<X<X<X<X",
"<X<X<X<X<X<X<X<X<XH.l.U.W._.`.`.`.`.`.`.`._._._.'._._._.T.W.W.T._.s.% h L.P.K.n.w.X <X<X<X<X<X<X<X<X",
"<X<X<X<X<X<X<X<X<X@X].].].].].].'.'.'.'._._._._.C.q.q.m.W.T.T.W.W.8.# @.R.K.v.x.f.w <X<X<X<X<X<X<X<X",
"<X<X<X<X<X<X<X<X<X%X`.].`.].'.'.'.'.'._._._._.e.d t t O.P.T.T.T.T.d.$.~.Y.n.x.x.g.f <X<X<X<X<X<X<X<X",
"<X<X<X<X<X<X<X<X<X+X'.'.`.].'.'.'.'.'._._._.d.s a y % $.'.[.U.U.U.L.R.Y.x.x.n.z.d.#.<X<X<X<X<X<X<X<X",
"<X<X<X<X<X<X<X<X<X<X!.[._._._.'._.'._._._.W.1.s a y d P.*X(.U.U.U.K.K.n.n.b.#.i 8.<.  <X<X<X<X<X<X<X",
"<X<X<X<X<X<X<X<X<X<X$X%X'.'._._._._._._._.T.8.o.a +.m.-X=XP.U.U.K.K.K.x.b.+.+ * d.,.  <X<X<X<X<X<X<X",
"<X<X<X<X<X<X<X<X<X<X:X;X[._._._._._.W._.W.W.n.4.w.[.;X-X^.I.I.K.K.n.x.x.2.@ % V.P.#.<X<X<X<X<X<X<X<X",
"<X<X<X<X<X<X<X<X<X<X,X;X_._._._.W.W._.T.T._.T.I.].&X%XY.L.I.K.m.K.n.s.s.2.g V.R.s.j <X<X<X<X<X<X<X<X",
"<X<X<X<X<X<X<X<X<X<X>X XW.W._.T.W.T.W.T.T.T.T.T.Y.U.M.P.L.M.M.n.n.b.s.s.r.z.B.u.w.= <X<X<X<X<X<X<X<X",
"<X<X<X<X<X<X<X<X<X<X XT././.T.T.T._._.T.T.U.U.U.I.I.I.L.M.M.n.n.b.b.s.s.s.e.q.y.4.O <X<X<X<X<X<X<X<X",
"<X<X<X<X<X<X<X<X<X<X X_.T.T.T./.P.y.b.T.T.T.U.U.I.L.L.K.m.m.n.d.s.s.s.s.y.t.y.i.K <X<X<X<X<X<X<X<X<X",
"<X<X<X<X<X<X<X<X<X<X.XT.U.T.T.y.g % u n.T.I.U.I.L.L.M.M.m.b.p.d.s.s.s.e.e.q.e.4.$ <X<X<X<X<X<X<X<X<X",
"<X<X<X<X<X<X<X<X<X<X}.U.U.T.n.i y @ %.'.I.U.L.L.L.L.M.M.r.u g x.e.y.e.e.e.t.i.#.<X<X<X<X<X<X<X<X<X<X",
"<X<X<X<X<X<X<X<X<X<X!._.U.T.p.p % +.XX].P.I.L.K.J.M.n.n.O.& B.P.t.w.i O.y.t.4.= <X<X<X<X<X<X<X<X<X<X",
"<X<X<X<X<X<X<X<X<X<X{._.U.T.I.2.q.|.XXU.L.P.K.M.M.n.b.b.$.j.R.t.y.3.g u.e.9.#.<X<X<X<X<X<X<X<X<X<X<X",
"<X<X<X<X<X<X<X<X<X<X<X(.U.T.U.U.T.T.P.I.L.K.M.M.n.b.b.d.s.s.t.e.y.w.z.z.w.%.<X<X<X<X<X<X<X<X<X<X<X<X",
"<X<X<X<X<X<X<X<X<X<X<X$X].I.U.I.I.M.P.C.K.M.n.n.b.b.s.y.s.y.i.i.e.w.:.=.*.<X<X<X<X<X<X<X<X<X<X<X<X<X",
"<X<X<X<X<X<X<X<X<X<X<X>X XI.I.I.U.I.M.M.m.n.n.b.d.z.p.g.i.e.6.-.*.<X<X<X<X<X<X<X<X<X<X<X<X<X<X<X<X<X",
"<X<X<X<X<X<X<X<X<X<X<X@XU.I.U.M.p.N.M.n.n.b.d.d.p.p.w.>.&.8 <X<X<X<X<X<X<X<X<X<X<X<X<X<X<X<X<X<X<X<X",
"<X<X<X<X<X<X<X<X<X<X<X(.U.U.N.g u j.n.z.b.f.p.6.-...6 <X<X<X<X<X<X<X<X<X<X<X<X<X<X<X<X<X<X<X<X<X<X<X",
"<X<X<X<X<X<X<X<X<X<X<X(.U.I.$.t b.P.f.g.;.&.8 5 <X<X<X<X<X<X<X<X<X<X<X<X<X<X<X<X<X<X<X<X<X<X<X<X<X<X",
"<X<X<X<X<X<X<X<X<X<X<X}.I.L.f.f.n.:.X.7 ; <X<X<X<X<X<X<X<X<X<X<X<X<X<X<X<X<X<X<X<X<X<X<X<X<X<X<X<X<X",
"<X<X<X<X<X<X<X<X<X<X<X).J.d.6.8 7 - <X<X<X<X<X<X<X<X<X<X<X<X<X<X<X<X<X<X<X<X<X<X<X<X<X<X<X<X<X<X<X<X",
"<X<X<X<X<X<X<X<X<X<X<Xh.X.5 - <X<X<X<X<X<X<X<X<X<X<X<X<X<X<X<X<X<X<X<X<X<X<X<X<X<X<X<X<X<X<X<X<X<X<X",
"<X<X<X<X<X<X<X<X<X<X<X<X<X<X<X<X<X<X<X<X<X<X<X<X<X<X<X<X<X<X<X<X<X<X<X<X<X<X<X<X<X<X<X<X<X<X<X<X<X<X",
"<X<X<X<X<X<X<X<X<X<X<X<X<X<X<X<X<X<X<X<X<X<X<X<X<X<X<X<X<X<X<X<X<X<X<X<X<X<X<X<X<X<X<X<X<X<X<X<X<X<X",
"<X<X<X<X<X<X<X<X<X<X<X<X<X<X<X<X<X<X<X<X<X<X<X<X<X<X<X<X<X<X<X<X<X<X<X<X<X<X<X<X<X<X<X<X<X<X<X<X<X<X",
"<X<X<X<X<X<X<X<X<X<X<X<X<X<X<X<X<X<X<X<X<X<X<X<X<X<X<X<X<X<X<X<X<X<X<X<X<X<X<X<X<X<X<X<X<X<X<X<X<X<X",
"<X<X<X<X<X<X<X<X<X<X<X<X<X<X<X<X<X<X<X<X<X<X<X<X<X<X<X<X<X<X<X<X<X<X<X<X<X<X<X<X<X<X<X<X<X<X<X<X<X<X",
"<X<X<X<X<X<X<X<X<X<X<X<X<X<X<X<X<X<X<X<X<X<X<X<X<X<X<X<X<X<X<X<X<X<X<X<X<X<X<X<X<X<X<X<X<X<X<X<X<X<X",
"<X<X<X<X<X<X<X<X<X<X<X<X<X<X<X<X<X<X<X<X<X<X<X<X<X<X<X<X<X<X<X<X<X<X<X<X<X<X<X<X<X<X<X<X<X<X<X<X<X<X"
};
