/* XPM */
static char *result[] = {
/* columns rows colors chars-per-pixel */
"50 50 223 2 ",
"   c #020202",
".  c #090201",
"X  c #050805",
"o  c #0B0D0A",
"O  c #1F120E",
"+  c #1A1814",
"@  c #21120E",
"#  c #24180F",
"$  c #251912",
"%  c #2B1B14",
"&  c #231712",
"*  c #311D14",
"=  c #391E14",
"-  c #331B0E",
";  c #29211A",
":  c #3B2115",
">  c #35231C",
",  c #3B251B",
"<  c #3D2A1C",
"1  c #262824",
"2  c #372D23",
"3  c #38322B",
"4  c #3C3F37",
"5  c #47230E",
"6  c #432513",
"7  c #492611",
"8  c #4B2A13",
"9  c #442C1C",
"0  c #4A2E1D",
"q  c #472619",
"w  c #542C14",
"e  c #45301E",
"r  c #48311F",
"t  c #4F3F1E",
"y  c #56351D",
"u  c #5C361C",
"i  c #573D1F",
"p  c #5B361B",
"a  c #6A3B17",
"s  c #633A1A",
"d  c #6D3D1A",
"f  c #643718",
"g  c #4A2F20",
"h  c #443424",
"j  c #4C3A24",
"k  c #493627",
"l  c #553C22",
"z  c #5B3D24",
"x  c #5A3C2B",
"c  c #573726",
"v  c #4C3D32",
"b  c #453E38",
"n  c #563832",
"m  c #653B2B",
"M  c #6C3A2B",
"N  c #663F22",
"B  c #763D2A",
"V  c #3E413C",
"C  c #51401E",
"Z  c #6B401C",
"A  c #544026",
"S  c #5B4123",
"D  c #594129",
"F  c #48433B",
"G  c #534235",
"H  c #5B463A",
"J  c #664327",
"K  c #7A442C",
"L  c #7C4C2B",
"P  c #75452A",
"I  c #7E502F",
"U  c #644532",
"Y  c #6C4433",
"T  c #684A35",
"R  c #784934",
"E  c #68543D",
"W  c #765136",
"Q  c #3C4340",
"!  c #4A4C46",
"~  c #4B4D49",
"^  c #444842",
"/  c #4E524C",
"(  c #53554E",
")  c #59584A",
"_  c #595449",
"`  c #4E5451",
"'  c #525552",
"]  c #565A54",
"[  c #5A5C56",
"{  c #5C5E5B",
"}  c #545D5F",
"|  c #675746",
" . c #605E51",
".. c #775F4C",
"X. c #5D625B",
"o. c #56605B",
"O. c #636255",
"+. c #62645D",
"@. c #6D6C5D",
"#. c #666959",
"$. c #786A59",
"%. c #67604A",
"&. c #5D6461",
"*. c #636661",
"=. c #646963",
"-. c #6A6B65",
";. c #666B6A",
":. c #6C6E69",
">. c #646768",
",. c #726E64",
"<. c #726F6B",
"1. c #6D726B",
"2. c #6A7166",
"3. c #747366",
"4. c #72746C",
"5. c #7B746B",
"6. c #74796E",
"7. c #7C796B",
"8. c #787366",
"9. c #747672",
"0. c #757A72",
"q. c #7A7C75",
"w. c #757B79",
"e. c #7C7E7A",
"r. c #83442A",
"t. c #8C462B",
"y. c #854C2D",
"u. c #8B4C2D",
"i. c #814D26",
"p. c #954B2D",
"a. c #994E2D",
"s. c #8D592E",
"d. c #88512C",
"f. c #97572F",
"g. c #874632",
"h. c #835633",
"j. c #8C5A33",
"k. c #835B3C",
"l. c #8A5E3B",
"z. c #865636",
"x. c #935631",
"c. c #925D33",
"v. c #9C5B35",
"b. c #945D39",
"n. c #9C5737",
"m. c #944C33",
"M. c #A55635",
"N. c #A65B38",
"B. c #B05F3E",
"V. c #A15A2E",
"C. c #986238",
"Z. c #8A633D",
"A. c #A4643C",
"S. c #AB6A3E",
"D. c #A76439",
"F. c #B3643C",
"G. c #B26D3F",
"H. c #BA6B3E",
"J. c #B56A35",
"K. c #AF713F",
"L. c #B97336",
"P. c #B2703E",
"I. c #BC733B",
"U. c #BC793B",
"Y. c #B67334",
"T. c #C2763E",
"R. c #C27C3F",
"E. c #8C5D41",
"W. c #8D6241",
"Q. c #986D41",
"!. c #A36942",
"~. c #AA6D42",
"^. c #A76944",
"/. c #B36B44",
"(. c #BA6C41",
"). c #B56741",
"_. c #AD7245",
"`. c #AD734A",
"'. c #B57344",
"]. c #BC7443",
"[. c #BE7A44",
"{. c #B57749",
"}. c #BE7A4A",
"|. c #BB764A",
" X c #84766A",
".X c #857E75",
"XX c #C27643",
"oX c #C47B44",
"OX c #CC7D47",
"+X c #C57C49",
"@X c #CB7E4A",
"#X c #C6774A",
"$X c #D07F4A",
"%X c #CC7C51",
"&X c #C57650",
"*X c #7B8177",
"=X c #7D827B",
"-X c #81847C",
";X c #82877A",
":X c #C68144",
">X c #CA8345",
",X c #C5814C",
"<X c #CD834B",
"1X c #CE8A4B",
"2X c #CF8846",
"3X c #D18146",
"4X c #D1844B",
"5X c #D38A4B",
"6X c #DB8B4D",
"7X c #D7914D",
"8X c #CC8453",
"9X c #D48650",
"0X c #D48A51",
"qX c #DB8B51",
"wX c #D98650",
"eX c #D89354",
"rX c #E19154",
"tX c #848681",
"yX c #858A82",
"uX c #898A84",
"iX c #898D88",
"pX c #8B918B",
"aX c None",
/* pixels */
"aXaXaXaXaXaXaXaXaXaXaXaXaXaXaXaXaXaXaXaXaXaXaXaXaXaXaXaXaXaXaXaXaXaXaXaXaXaXaXaXaXaXaXaXaXaXaXaXaXaX",
"aXaXaXaXaXaXaXaXaXaXaXaXaXaXaXaXaXaXaXaXaX-XiX-XuXtXuX-XtX-XaXaXaXaXaXaXaXaXaXaXaXaXaXaXaXaXaXaXaXaX",
"aXaXaXaXaXaXaXaXaXaXaXaXaXaXaXaXaXaXaXaXaX9.e.-X.X-X.X4.:.-.aXaXaXaXaXaXaXaXaXaXaXaXaXaXaXaXaXaXaXaX",
"aXaXaXaXaXaXaXaXaXaXaXaXaXaXaXaXaXaXaXaXaX<.w.q.w.-Xq.*.-.*.aXaXaXaXaXaXaXaXaXaXaXaXaXaXaXaXaXaXaXaX",
"aXaXaXaXaXaXaXaXaXaXaXaXaXaXaXaXaXaXaXaXaX-.=X9.*Xq.*X2.-.[ aXaXaXaXaXaXaXaXaXaXaXaXaXaXaXaXaXaXaXaX",
"aXaXaXaXaXaXaXaXaXaXaXaXaXaXaXaXaXaXaXaXaX] 4.0.q.*X0.4.4.( aXaXaXaXaXaXaXaXaXaXaXaXaXaXaXaXaXaXaXaX",
"aXaXaXaXaXaXaXaXaXaXaXaXaXaXaXaXaXaXaXtX1./ 2.w.1.6.*X0.1.] =X=X9.aXaXaXaXaXaXaXaXaXaXaXaXaXaXaXaXaX",
"aXaXaXaXaXaXaXaXaXaXaXaX<.q.0.aXaX9.e.9.9./ X.9.2.0.6.*X2.=.=X9.w.9.&.aX=XuX9.aXaXaXaXaXaXaXaXaXaXaX",
"aXaXaXaXaXaXaXaXaXaXaXe.0.w.1.+.*X-X6.6.1.o.X.=X-X=Xe.q.-.4.q.1.1.6.=.4.iXuX*X>.aXaXaXaXaXaXaXaXaXaX",
"aXaXaXaXaXaXaXaXaXaX9.9.0.6.0.1.+.*X7.;X8.%.| $. X5.5.,. .5.7.q.3.-.] ;XuX=X=X*XaXaXaXaXaXaXaXaXaXaX",
"aXaXaXaXaXaXaXaXaXaX4.9.0.0.0.0.=.-.7.$.E J C W U U _ v 3 k  .@.4.+.q.;X;X*XyX*XaXaXaXaXaXaXaXaXaXaX",
"aXaXaXaXaXaXaXaXaXaXaX*.*X0.6.q.5.| %.W Z.C.j.h.Y m z y r < * 2 G -.;X-X=X=X*XX.aXaXaXaXaXaXaXaXaXaX",
"aXaXaXaXaXaXaXaXaXaX*.{ >.w.4.7.| U W.!.{.{.S.~.x.L Z p S r : ; % b 4.w.;X1.+.X.aXaXaXaXaXaXaXaXaXaX",
"aXaXaXaXaXaXaXaXaXaXe.e.&.=.-.| z k.^.'.[.<XU.'.A.b.i.a u y 8 : % X 1 &.&.X.0.*X=.aXaXaXaXaXaXaXaXaX",
"aXaXaXaXaXaXaXaXaX<.e.q.1.] H U h.!.|.#X<XeXU.'.~.!.c.d f u y 9 $ . X 1 ` =X;X-X9.aXaXaXaXaXaXaXaXaX",
"aXaXaXaXaXaXaXaXaX4.q.e..X| D W.!./.8X9X4XeXU.'._.`.~.i.f u c 9 % .   X Q 0.-XyXw.-.aXaXaXaXaXaXaXaX",
"aXaXaXaXaXaXaXaX] *.:.q. XU E.`._.XX9XqX7X7XL.:X_.`._.s.a p p 0 % .     + [ *X*X=.[ aXaXaXaXaXaXaXaX",
"aXaXaXaXaXaXaXaXe.;.>.8...R Q.}.U.XXqXqX7X7XL.R.{._.'.c.f p y 9 % .   X X 1 X.=.#.2.;.aXaXaXaXaXaXaX",
"aXaXaXaXaXaXaXaX9.9..X$.W l.'.%XT.oXqX7X7X1XY.:X[.'.{.c.f f c 0 %         o ! 4.*X4.:.aXaXaXaXaXaXaX",
"aXaXaXaXaXaXaXe.9.1.8.$.W !.'.9X<XoX6X6X1X1XY.:X[.'.{.c.a s y r %           V 1.4.4.4.aXaXaXaXaXaXaX",
"aXaXaXaXaXaXaX4.9.1.3.| h.!.XXqX5X:X5X6X2X2XU.,X[.[.{.s.a s y r *           1 #.6.6.4.aXaXaXaXaXaXaX",
"aXaXaXaXaXaXaX-.*.=.O.l I S.+XqX5X>X6X5X2X2X:X0XoX[.{.C.a s p r %       X X X ! +.O.+.=.aXaXaXaXaXaX",
"aXaXaXaXaX*.=X-X;XiX7.A h.'.4XrX5X:X5X6X2X1XR.0X+X}.'.C.a s z 9 $ .         . ~ -X-X-XuX=X-.aXaXaXaX",
"aXaXaXaXaXq.q.9.2.2.@.S h.}.wXrX4X:X5X3X1X5XR.5X+X+X'.C.Z s i e &             / q.q.-Xq.9.>.aXaXaXaX",
"aXaXaXaXaX-Xq.e.-X0.@.D h.,XqX6X5X:X4X3X1X5XT.0X+XoX'.s.Z N l < $             ' *Xq.*Xq.q.-.aXaXaXaX",
"aXaXaXaXaX9..Xq.=X=X@.D l.8X6XwX4X+X4X3X4X1XU.9XoX[.P.c.Z J l 9 #             ] ;Xq.q.=Xq.>.aXaXaXaX",
"aXaXaXaXaX-.:.4.4.9.-.D l.8XqXwX4X:X4X$X2X<XL.9XXX].G.j.J J l h # .           ' -X6.4.4.1.{ aXaXaXaX",
"aXaXaXaXaXX.{ O.+.=.O.l c.8XwXqX4XoX$XOX2X<XL.4XXX].K.c.N U E v ; .         X ! 4.+.+.*.O.' aXaXaXaX",
"aXaXaXaXaX! ! / o.o.) i s.8X9X4X<XXXOXOX<X<XL.@XoXP.S.l.j g G 3 + X         X V [ X.] ~ ~ aXaXaXaXaX",
"aXaXaXaXaXaXaX*.pXpX4.i s.8X4X4XOXU.4X3X<X5XL.+X].'.S.l.g 9 F ) 1             / tX=X2./ aXaXaXaXaXaX",
"aXaXaXaXaXaXaX+.yXyX3.A s.<X4X4XOXT.$X$X<X1XL.<X].'._.k.G ! > F 1           X ] tX0.1.` aXaXaXaXaXaX",
"aXaXaXaXaXaXaX .*X=X3.S c.<X<X4X4XT.OXOX<XOXL.<X].[.'.k.k k ; 3 ;           X ` =X0.2./ aXaXaXaXaXaX",
"aXaXaXaXaXaXaX[ 9.*X@.C c.,X<X4X3XT.OX3X4X>XI.<X#X'.~.E.< G b 3 +             / 9.2.X./ aXaXaXaXaXaX",
"aXaXaXaXaXaXaX{ 9.1.O.i C.:XOX4XT.T.OX3X5X4XoX4X].'._.W < h v % +             / 6.X.X.~ aXaXaXaXaXaX",
"aXaXaXaXaXaXaX) X.o./ i C.+X<X4X+XT.3X3X<X>XY.,X].'._.k.6 - * 2 &           X Q &.X.o.~ aXaXaXaXaXaX",
"aXaXaXaXaX] -.-.=.&.) i s.,X<X4X>XoX3X3X2XT.J.@X(.'.~.L 0 6 < > &             ^ &.=.X.X.-.X.aXaXaXaX",
"aXaXaXaXaXq.=XyXuXyX7.i C.8X@X<X+XT.5XOX3XT.J.+X(./.!.L 7 7 : , O             ' =X0.q.=X-X:.aXaXaXaX",
"aXaXaXaXaX9.6.*X*X6.@.C s.<X@X<XI.T.OX4X9XXXF.#X).A.V.K 7 q 9 , @ .         X ' 1.#.6.;X-X+.aXaXaXaX",
"aXaXaXaXaXq.q.=X*X2.#.C c.#X#X+XP.H.+X+X+XXXN.].N.v.c.Z 7 8 9 , @ .           ] =X1.*X*X;X-.aXaXaXaX",
"aXaXaXaXaX=X9.*X*X4.O.t j.%XXX[.G.F.XXoXoX(.V.~.v.x.y.P w 7 6 : @ .           ' yX*X*X9.5.*.aXaXaXaX",
"aXaXaXaXaX9.w.=X0.1.X.C j.%X(.'.S.D.XXXXH.(.n.N.x.u.y.d w 6 q > @ .           / =X*X*X=X6.+.aXaXaXaX",
"aXaXaXaXaX=.-.>.[ X.) i j.#XH.S.!.D.H.H.H.).a.N.u.r.K m 5 5 6 * @ . aXaXaXaXo ^ o.=.o.=.o.! aXaXaXaX",
"aXaXaXaXaXaXaX` >.;.[ j z.|.F.N.A.N.F.F.F.B.m.m.r.B B w 5 5 = * & aXaXaXaXaXaX/ =.2.o.~ aXaXaXaXaXaX",
"aXaXaXaXaXaXaX&.w..X8.l z.).N.v.v.M.M.M.M.M.t.g.B M M q = * = % aXaXaXaXaXaXaXaX=X*X6.~ aXaXaXaXaXaX",
"aXaXaXaXaXaXaX>.9.9.3.A u.N.M.x.x.p.p.m.m.m.g.R M m n = > > aXaXaXaXaXaXaXaXaX9.=Xw.;.` aXaXaXaXaXaX",
"aXaXaXaXaXaXaX;.w.9.,.A y.n.p.t.y.t.t.u.g.z.B Y m c aXaXaXaXaXaXaXaXaXaXaXaXaX>.q.9.4.' aXaXaXaXaXaX",
"aXaXaXaXaXaXaX>.w.<.$.l L d.t.r.R K R P Y | Y aXaXaXaXaXaXaXaXaXaXaXaXaXaXaXaX>.9.w.9.] aXaXaXaXaXaX",
"aXaXaXaXaXaXaX{ 9.>.O.l T R P M m U m Y aXaXaXaXaXaXaXaXaXaXaXaXaXaXaXaXaXaXaX .q.w.=X( aXaXaXaXaXaX",
"aXaXaXaXaXaXaX' { } ' 2 k x x n n aXaXaXaXaXaXaXaXaXaXaXaXaXaXaXaXaXaXaXaXaXaX~  .>.>.aXaXaXaXaXaXaX",
"aXaXaXaXaXaXaXaXaXaXaXaXaXaXaXaXaXaXaXaXaXaXaXaXaXaXaXaXaXaXaXaXaXaXaXaXaXaXaXaXaXaXaXaXaXaXaXaXaXaX"
};
