/* XPM */
static char *result[] = {
/* columns rows colors chars-per-pixel */
"47 50 246 2 ",
"   c #180B09",
".  c #09170D",
"X  c #19140A",
"o  c #0C1516",
"O  c #161619",
"+  c #0D0E09",
"@  c #280A06",
"#  c #390A07",
"$  c #291207",
"%  c #3B1709",
"&  c #27141A",
"*  c #3B1816",
"=  c #3A0110",
"-  c #36291A",
";  c #322810",
":  c #2B1F25",
">  c #242526",
",  c #3C2928",
"<  c #393733",
"1  c #430A02",
"2  c #4D0B02",
"3  c #440607",
"4  c #550A01",
"5  c #5E0C00",
"6  c #570806",
"7  c #491608",
"8  c #5C1404",
"9  c #581607",
"0  c #451C18",
"q  c #561815",
"w  c #510911",
"e  c #640805",
"r  c #6E1402",
"t  c #6C1A03",
"y  c #64140C",
"u  c #63190C",
"i  c #681708",
"p  c #761908",
"a  c #641E14",
"s  c #661714",
"d  c #751A16",
"f  c #790D0B",
"g  c #58280E",
"h  c #45221B",
"j  c #4A241B",
"k  c #40281C",
"l  c #562718",
"z  c #533417",
"x  c #55330B",
"c  c #672307",
"v  c #7A240B",
"b  c #6B2819",
"n  c #782817",
"m  c #78371A",
"M  c #673B15",
"N  c #541B22",
"B  c #492B26",
"V  c #562825",
"C  c #5A382D",
"Z  c #542F38",
"A  c #4C3836",
"S  c #553A36",
"D  c #673928",
"F  c #7A3A28",
"G  c #6C2F2E",
"H  c #47411F",
"J  c #7C4913",
"K  c #6D541B",
"L  c #57443E",
"P  c #504630",
"I  c #69432B",
"U  c #754827",
"Y  c #7E5A24",
"T  c #674A3A",
"R  c #745135",
"E  c #403D44",
"W  c #4F4741",
"Q  c #525352",
"!  c #695646",
"~  c #745547",
"^  c #6C5B57",
"/  c #765C54",
"(  c #704D4C",
")  c #7D635B",
"_  c #676D49",
"`  c #695E64",
"'  c #6C6560",
"]  c #786768",
"[  c #7B7676",
"{  c #891A0A",
"}  c #961408",
"|  c #971914",
" . c #8B1609",
".. c #AA1708",
"X. c #AA100F",
"o. c #892705",
"O. c #97270A",
"+. c #963403",
"@. c #872817",
"#. c #972918",
"$. c #873714",
"%. c #96361C",
"&. c #823008",
"*. c #A92806",
"=. c #B42D00",
"-. c #BB2B06",
";. c #A73809",
":. c #B93300",
">. c #B93609",
",. c #A92914",
"<. c #AA3613",
"1. c #BA3417",
"2. c #8C2D29",
"3. c #893827",
"4. c #993B26",
"5. c #852C32",
"6. c #A73926",
"7. c #B53A25",
"8. c #D30C07",
"9. c #DE190C",
"0. c #C91415",
"q. c #C20D12",
"w. c #EC0800",
"e. c #FE0B01",
"r. c #F60905",
"t. c #F81204",
"y. c #ED1214",
"u. c #C52E06",
"i. c #C53508",
"p. c #C23B12",
"a. c #DA3110",
"s. c #D92A2A",
"d. c #E23E32",
"f. c #EF2F18",
"g. c #98460F",
"h. c #884B1C",
"j. c #964917",
"k. c #A64709",
"l. c #BA460C",
"z. c #A84614",
"x. c #B74B19",
"c. c #BD5017",
"v. c #9C4627",
"b. c #935725",
"n. c #954A33",
"m. c #9E593D",
"M. c #874E2C",
"N. c #A24529",
"B. c #B74627",
"V. c #AB5927",
"C. c #BB5C2C",
"Z. c #B75B37",
"A. c #AB4D38",
"S. c #8F6A2B",
"D. c #A96329",
"F. c #B8653A",
"G. c #AB762F",
"H. c #C64708",
"J. c #D8470D",
"K. c #C65809",
"L. c #CE5A17",
"P. c #D75A11",
"I. c #DE590E",
"U. c #E35406",
"Y. c #E54805",
"T. c #D97407",
"R. c #CB6A17",
"E. c #D6671A",
"W. c #DC731A",
"Q. c #D1650B",
"!. c #F76D07",
"~. c #ED7706",
"^. c #FB7404",
"/. c #F3750C",
"(. c #FD740B",
"). c #FD790C",
"_. c #F57B07",
"`. c #E86818",
"'. c #F66C14",
"]. c #E77919",
"[. c #FE7312",
"{. c #F47918",
"}. c #EE6E09",
"|. c #CB5536",
" X c #CE5822",
".X c #FB5A3D",
"XX c #D76733",
"oX c #CA712F",
"OX c #E76929",
"+X c #E87826",
"@X c #F37C24",
"#X c #E47338",
"$X c #8C5344",
"%X c #91524D",
"&X c #A95A4F",
"*X c #94714C",
"=X c #AB724B",
"-X c #86777A",
";X c #8F7373",
":X c #AC7164",
">X c #C56E57",
",X c #EA6D5B",
"<X c #CB7865",
"1X c #FF786B",
"2X c #F68316",
"3X c #DB862C",
"4X c #FE8029",
"5X c #B79553",
"6X c #B08A5A",
"7X c #918064",
"8X c #B09462",
"9X c #D59156",
"0X c #F2935B",
"qX c #DDA44B",
"wX c #EFAE4F",
"eX c #D18C68",
"rX c #FB986E",
"tX c #F99567",
"yX c #FB9A72",
"uX c #F59778",
"iX c #F08A6F",
"pX c #D0B371",
"aX c #EAAF61",
"sX c #DCC57F",
"dX c #F8D979",
"fX c #F9D46B",
"gX c #FBE57F",
"hX c #8A8C89",
"jX c #848B9D",
"kX c #A6938D",
"lX c #9BA3A6",
"zX c #AFAEA9",
"xX c #C7B2AF",
"cX c #ED958B",
"vX c #D6C586",
"bX c #F2D089",
"nX c #F9E591",
"mX c #F4E586",
"MX c #C5CDBE",
"NX c #B7BAC2",
"BX c #C8C9C6",
"VX c #D8D3CF",
"CX c #E3DBD3",
"ZX c #FAF9FD",
"AX c #E7E8E3",
"SX c None",
/* pixels */
"SXSXSXSXSXSXSXSXSXSXSXSXSXSXSXSXSXSXSXSXSXSXSXSXSXSXSXSXSXSXSXSXSXSXSXSXSXSXSXSXSXSXSXSXSXSXSX",
"SXSXSXSXSXSXSXSXSXSXSXSXSXSXSX] A A W SXSXSXSXSXSXSXSXSXSXSXSXSXSXSXSXSXSXSXSXSXSXSXSXSXSXSXSX",
"SXSXSXSXSXSXSXSXSXSXSXSXSX[ k 2 d f e 7 * SXSXSXSXSXSXSXSXSXSXSXSXSXSXSXSXSXSXSXSXSXSXSXSXSXSX",
"SXSXSXSXSXSXSXSXSXSXSXSX[ 0 f X.0.9.X.@.D % SXSXSXSXSXSXSXSXSXSXSXSXSXSXSXSXSXSXSXSXSXSXSXSXSX",
"SXSXSXSXSXSXSXSXSXSXSXSX* f 0.r.r.e.0.| &X@.k SXSXSXSXSXSXSXSXSXSXSXSXSXSXSXSXSXSXSXSXSXSXSXSX",
"SXSXSXSXSXSXSXSXSXSXSX, s 0.r.e.e.e.y.X.%.Z.9 SXSXSXSXSXSXSXSXSXSXSXSXSXSXSXSXSXSXSXSXSXSXSXSX",
"SXSXSXSXSXSXSXSXSXSX[ 0 | s.w.w.e.e.r.q.O.|.m , SXSXSXSXSXSXSXSXSXj 0 A SXSXSXSXSXSXSXSXSXSXSX",
"SXSXSXSXSXSXSXSXSXSXZ b ,X.Xf.y.r.w.e.9.} XXc.4 T ! S C 7 l 7 q v.&Xv.l SXSXSXSXSXSXSXSXSXSXSX",
"SXSXSXSXSXSXSXSXSXSX* m.rX0X0Xd.y.e.e.8.} L.].{ u 4.B.$.b b 9 b @.2.a ~ SXSXSXSXSXSXSXSXSXSXSX",
"SXSXSXSXSXSXSXSXSXSX* <XyX0XtX1Xs.8.y.q. .E.].x.<.>.i.z.N.3.b 9 # 7 * zXSXSXSXSXSXSXSXSXSXSXSX",
"SXSXSXSXSXSXSXSXSXSX0 <XrXtXuXuX6.} s.X.<.]./.'.U.Y.a.>.o.9 6 7 b 3 B SXSXSXSXSXSXSXSXSXSXSXSX",
"SXSXSXSXSXSXSXSXSXSXq <XrXtXrX>X4.O.} ..L./.^.^.^.^._.+XXX|.v 4 d q kXSXSXSXSXSXSXSXSXSXSXSXSX",
"SXSXSXSXSXSXSXSXSXSX0 :XrX0XtX|.N.oX;.P./.^.(.^.^.~.T.c.x.W.oX4.2 j MXSXSXSXSXSXSXSXSXSXSXSXSX",
"SXSXSXSXSXSXSXSXSXSXL F yXtXtXiX6.C.#X{._.^.[.!.).@Xx.<.L.K.E.#X3.7 / zXSXSXSXSXSXSXSXSXSXSXSX",
"SXSXSXSXSXSXSXSXSXSXSXj >XyXrXuXA.;.4X^.~.~.).).^.`.L.W.3Xg.z.+XOX+.9 V xXSXSXSXSXSXSXSXSXSXSX",
"SXSXSXSXSXSXSXSXSXSXSXL F uXiXiX2.<.'.).~.T._.^.).)./.W.J B J W.~.+XZ.7 ) SXSXSXSXSXSXSXSXSXSX",
"SXSXSXSXSXSXSXSXSXSXSXSXB %XcXeXn ..U./.^.U.l.Q.+X~.2Xk.;XMXR V.2XR.K % A BXSXSXSXSXSXSXSXSXSX",
"SXSXSXSXSXSXSXSXSXSXSXSXSXV %X:Xa >.:.Y.'./.`.;.l.{.{.z.xXZXxXD R.j.7X, ` SXSXSXSXSXSXSXSXSXSX",
"SXSXSXSXSXSXSXSXSXSXSXSXSXSX] G p 1.i.u.I._.[.OXz.l.#Xj.;XZXCX! b.*XMXQ zXSXSXSXSXSXSXSXSXSXSX",
"SXSXSXSXSXSXSXSXSXSXSXSXSXSXSX( p p.i.u.:.H.'.[.+Xc.z.V.R AXVXP h.*XzXE VXSXSXSXSXSXSXSXSXSXSX",
"SXSXSXSXSXSXSXSXSXSXSXSXSXSXSX-Xt 1.=.>.:.<.;.U.}.@XK.+.x zXjX, V.U W P CXSXSXSXSXSXSXSXSXSXSX",
"SXSXSXSXSXSXSXSXSXSXSXSXSXSXSXSXk #.>.=.=.v n @.z.R.+X|.a -XW $ h.k o > kXSXSXSXSXSXSXSXSXSXSX",
"SXSXSXSXSXSXSXSXSXSXSXSXSXSXSXSXQ g <.i.;.j.9X3.y &.+.6.d C z z I ) ' ; - SXSXSXSXSXSXSXSXSXSX",
"SXSXSXSXSXSXSXSXSXSXSXSXSXSXSXSXlXN #.i.,.D.aXqX2.e @.i 9 G.5XsX8XT ! K ; SXSXSXSXSXSXSXSXSXSX",
"SXSXSXSXSXSXSXSXSXSXSXSXSXSXSXSXSXW c <.;.G.wXwXh.3 = # z *XpXfXvXS.*X! - SXSXSXSXSXSXSXSXSXSX",
"SXSXSXSXSXSXSXSXSXSXSXSXSXSXSXSX] L 1 p &.S.wXaXg.i @   g J S.S.M.M.T h ^ SXSXSXSXSXSXSXSXSXSX",
"SXSXSXSXSXSXSXSXSXSXSXSXSXSX^ l u t d 8 9 M G.9Xz.{ e 7 G.SXK H I C SXSXSXSXSXSXSXSXSXSXSXSXSX",
"SXSXSXSXSXSXSXSXSXSXSXSXSXSXl C.OXJ.,.5.u 7 7 =XD. .| n.SXSX_ SXSXSXSXSXSXSXSXSXSXSXSXSXSXSXSX",
"SXSXSXSXSXSXSXSXSXSXSXSXSX] $.+X/./.>.@.r v b M G.b.m I SXSXSXSXSXSXSXSXSXSXSXSXSXSXSXSXSXSXSX",
"SXSXSXSXSXSXSXSXSXSXSXSXSX;Xc Q.]._.{.E.L.OXC.t J h.K 7 , hXzXSXSXSXSXSXSXSXSXSXSXSXSXSXSXSXSX",
"SXSXSXSXSXSXSXSXSXSXSXSXSXSXV c k.R.{.[.[.!.].z.g Y =Xu = 0 B SXSXSXSXSXSXSXSXSXSXSXSXSXSXSXSX",
"SXSXSXSXSXSXSXSXSXSXSXSXSXSXSX, 2 c ;.`.!.^.}.z.g 5XvXV 3 q F SXSXSXSXSXSXSXSXSXSXSXSXSXSXSXSX",
"SXSXSXSXSXSXSXSXSXSXSXSXSXSXSXW w f 6 i x.OXl.o.M.bXvXl 3 y 4.4.SXSXSXSXSXSXSXSXSXSXSXSXSXSXSX",
"SXSXSXSXSXSXSXSXSXSXSXSXSXSXSXZ d 6.o.r e d u D bXnXpXq s #.O.SXSXSXSXSXSXSXSXSXSXSXSXSXSXSXSX",
"SXSXSXSXSXSXSXSXSXSXSXSXSXSXSXV  .,.p.<.v.D R pXnXnX5X7 q SXSXSXSXSXSXSXSXSXSXSXSXSXSXSXSXSXSX",
"SXSXSXSXSXSXSXSXSXSXSXSXSXSXSXw e ,.u.:.3XdXmXgXdXbXS.! SXSXSXSXSXSXSXSXSXSXSXSXSXSXSXSXSXSXSX",
"SXSXSXSXSXSXSXSXSX:X%XSX%XG q q v >.u.-.x.qXfXdXbX6XT SXSXSXSXSXSXSXSXSXSXSXSXSXSXSXSXSXSXSXSX",
"SXSXSXSXSXSXSXSXSX:X$.$.2.2.y e <.:.u.1.,.V.oX9Xm.q Z SXSXSXSXSXSXSXSXSXSXSXSXSXSXSXSXSXSXSXSX",
"SXSXSXSXSXSXSXSXSXSXSX$Xs 4 y @.1.u.i.{ r r t 5 4 6 q SXSXSXSXSXSXSXSXSXSXSXSXSXSXSXSXSXSXSXSX",
"SXSXSXSXSXSXSXSXSXSXSXSXSX# i <.:.i.#.9 @ 3 # 0 i ,.v SXSXSXSXSXSXSXSXSXSXSXSXSXSXSXSXSXSXSXSX",
"SXSXSXSXSXSXSXSXSXSXSXSXhX7 o.-.i.<.i 3 > : $ 0 $.7.*.o.N.SXSXSXSXSXSXSXSXSXSXSXSXSXSXSXSXSXSX",
"SXSXSXSXSXSXSXSXSXSXSXSXS 8 O.p.,.r 3 & > > & & i #.1.1.N.u SXSXSXSXSXSXSXSXSXSXSXSXSXSXSXSXSX",
"SXSXSXSXSXSXSXSXSXSXSXSX2 2.<.:. .2 @ O o o O   # @.7.{ e SXSXSXSXSXSXSXSXSXSXSXSXSXSXSXSXSXSX",
"SXSXSXSXSXSXSXSXSXSXSXSX3 #.7.p.B.n % X . o o X # 9 u 2 SXSXSXSXSXSXSXSXSXSXSXSXSXSXSXSXSXSXSX",
"SXSXSXSXSXSXSXSXSXSXSXSXj 8 { <.|.6.9 $ X . .   @ @ $   SXSXSXSXSXSXSXSXSXSXSXSXSXSXSXSXSXSXSX",
"SXSXSXSXSXSXSXSXSXSXSXSXSX( q p @.d 9 # X . + & SXSXSXSXSXSXSXSXSXSXSXSXSXSXSXSXSXSXSXSXSXSXSX",
"SXSXSXSXSXSXSXSXSXSXSXSXSXSXkX( V 3 # @ X . O SXSXSXSXSXSXSXSXSXSXSXSXSXSXSXSXSXSXSXSXSXSXSXSX",
"SXSXSXSXSXSXSXSXSXSXSXSXSXSXSXSXSXSXSXSXSXSXSXSXSXSXSXSXSXSXSXSXSXSXSXSXSXSXSXSXSXSXSXSXSXSXSX",
"SXSXSXSXSXSXSXSXSXSXSXSXSXSXSXSXSXSXSXSXSXSXSXSXSXSXSXSXSXSXSXSXSXSXSXSXSXSXSXSXSXSXSXSXSXSXSX",
"SXSXSXSXSXSXSXSXSXSXSXSXSXSXSXSXSXSXSXSXSXSXSXSXSXSXSXSXSXSXSXSXSXSXSXSXSXSXSXSXSXSXSXSXSXSXSX"
};
