/* XPM */
static char *f8c15091e3c94d34f43905fb62c302e3Xkhyi9HtggUYKFAR[] = {
/* columns rows colors chars-per-pixel */
"50 60 208 2 ",
"   c None",
".  c #341E00",
"X  c #382000",
"o  c #1F2E32",
"O  c #313935",
"+  c #492C0D",
"@  c #5B2400",
"#  c #562700",
"$  c #57370C",
"%  c #6D2B00",
"&  c #612600",
"*  c #722D00",
"=  c #693909",
"-  c #753A04",
";  c #783C09",
":  c #7B3D10",
">  c #7C4D0F",
",  c #6D4912",
"<  c #734A13",
"1  c #765013",
"2  c #32494E",
"3  c #364C51",
"4  c #3A545A",
"5  c #395055",
"6  c #2E4347",
"7  c #3E5B61",
"8  c #445757",
"9  c #51605E",
"0  c #736753",
"q  c #415D65",
"w  c #47666D",
"e  c #48666E",
"r  c #48686F",
"t  c #4C6B73",
"y  c #4E6C76",
"u  c #526E76",
"i  c #53737D",
"p  c #556E71",
"a  c #757970",
"s  c #8C3600",
"d  c #893906",
"f  c #843604",
"g  c #943A01",
"h  c #9D3D00",
"j  c #A13F02",
"k  c #95430C",
"l  c #845613",
"z  c #835915",
"x  c #9B5318",
"c  c #9F4F14",
"v  c #A44104",
"b  c #AC4607",
"n  c #A45817",
"m  c #B85211",
"M  c #976719",
"N  c #935529",
"B  c #8E5D3A",
"V  c #A25D28",
"C  c #9D622D",
"Z  c #976536",
"A  c #A8622C",
"S  c #B66A2E",
"D  c #AD6E32",
"F  c #B36F32",
"G  c #A8753C",
"H  c #B47134",
"J  c #BC7435",
"K  c #BB7639",
"L  c #C25612",
"P  c #C67A37",
"I  c #CD7E39",
"U  c #C67A39",
"Y  c #9B7559",
"T  c #9E7759",
"R  c #8C6C4F",
"E  c #B07949",
"W  c #A37C5D",
"Q  c #A06F40",
"!  c #817663",
"~  c #78847A",
"^  c #CD803B",
"/  c #D3813B",
"(  c #D8863E",
")  c #D7883F",
"_  c #BB864A",
"`  c #B58959",
"'  c #9E9A71",
"]  c #B98A65",
"[  c #BA996E",
"{  c #AD8D6D",
"}  c #BFA171",
"|  c #C48443",
" . c #C88944",
".. c #D38740",
"X. c #DB8A41",
"o. c #D78942",
"O. c #DA964A",
"+. c #DA9D58",
"@. c #C38B51",
"#. c #E18F43",
"$. c #E49447",
"%. c #E49549",
"&. c #EC9A4A",
"*. c #E5984A",
"=. c #F29F4E",
"-. c #DFA05B",
";. c #F4A14F",
":. c #EAA052",
">. c #F5A451",
",. c #FAA753",
"<. c #FAA955",
"1. c #FBAD5C",
"2. c #F7AB5C",
"3. c #EFA04F",
"4. c #C49669",
"5. c #CB9972",
"6. c #C89771",
"7. c #D59C6B",
"8. c #C3A16F",
"9. c #D9A566",
"0. c #CCA67C",
"q. c #DDB57B",
"w. c #CAB77E",
"e. c #FBB264",
"r. c #F8B569",
"t. c #E2B476",
"y. c #FDBE74",
"u. c #F0BD7D",
"i. c #E4A868",
"p. c #FDC37C",
"a. c #FDC077",
"s. c #557681",
"d. c #577983",
"f. c #5A7B85",
"g. c #5C7E89",
"h. c #667E83",
"j. c #5E818D",
"k. c #478296",
"l. c #63848E",
"z. c #6E8488",
"x. c #638693",
"c. c #648995",
"v. c #6D8C96",
"b. c #678C99",
"n. c #698E9A",
"m. c #6D909B",
"M. c #71929C",
"N. c #779190",
"B. c #6895A2",
"V. c #7295A1",
"C. c #789BA6",
"Z. c #7DA0AB",
"A. c #879796",
"S. c #B29A81",
"D. c #BDB887",
"F. c #829DA5",
"G. c #82A2AD",
"H. c #8CA2A9",
"J. c #82A9B3",
"K. c #8AACB5",
"L. c #87AEB8",
"P. c #8CB2BB",
"I. c #95B5BD",
"U. c #92AAB2",
"Y. c #C1BC89",
"T. c #D9B986",
"R. c #CEB189",
"E. c #E3BC82",
"W. c #C9C593",
"Q. c #DFD99D",
"!. c #DBD49A",
"~. c #CEC395",
"^. c #E9C388",
"/. c #FDCD8C",
"(. c #F8C684",
"). c #FFD292",
"_. c #F0D597",
"`. c #FBF397",
"'. c #E0E29D",
"]. c #D9CAA2",
"[. c #D5D4AF",
"{. c #E2DAAB",
"}. c #FDF9BA",
"|. c #EEEBB9",
" X c #95BCC6",
".X c #8FBBC6",
"XX c #A0BEC5",
"oX c #99C5D0",
"OX c #A7CAD4",
"+X c #AAD3DE",
"@X c #ADCBD3",
"#X c #B6DDE8",
"$X c #BDE3EE",
"%X c #D6D6CD",
"&X c #EDEBC9",
"*X c #FAF8C6",
"=X c #E6E5DE",
"-X c #FDFCD4",
";X c #FFFFDB",
":X c #F4F3D1",
">X c #C8E3E8",
",X c #C5EAF5",
"<X c #C6EBF5",
"1X c #D7F5FB",
"2X c #FBFBE7",
"3X c #FFFFF5",
"4X c #FFFFF8",
"5X c #E6FDFE",
/* pixels */
"                                              s g f g *                                             ",
"                                        @ % s g h h h h h d                                         ",
"                                      @ % h h h h h h h h h j k                                     ",
"                                    # % g h h h j h h h h h h L :                                   ",
"                                    & * h h h h h h h h h h h b d                                   ",
"                                  @ % s h h h h h h h h h h h b L                                   ",
"                                  @ % h h h h d k d g c v v h h m                                   ",
"                                  @ % g h s X.A &...>.,.v j h h L                                   ",
"                                  @ % % f x 2.N %.>.S >.>.9.g h k                                   ",
"                                    % % % #.=.S.X.&.%X&.<.).h b                                     ",
"                                    P f I ;.o.g.K ..B...,.).Q <.t.                                  ",
"                                  H N H o.1.$...X.;._ $.p.).).D %.                                  ",
"                                  F S / =.).E.,./.(.2.y./.<.1.t.,.                                  ",
"                                    C / ;.,.;.I >.>.e.,.,.,.,.R.                                    ",
"                                      E ;.,.4.R K | ] i.,.,.,.{                                     ",
"                                      R W 6.6.W [ 5.6.5.5.5.5.                                      ",
"                                      B T 5.5.E _ ` 7.5.5.5.R.                                      ",
"                                    ..V Y 5.Y %.$.y.+.5.5.5.[ /.                                    ",
"                                  #./ U Z Y Y W ] 6.6.5.6.] y.(.).                                  ",
"                                X.,...#.].!.N Y 6.6.6.@.-XT./.X.1.).                                ",
"                              ( ,.,.P >.;X;XR.V U @.;.].;X;X/.4.;.,./.                              ",
"                            X.,.,. .I &X;X;X;X&X0.[ &X;X;X;X%X).I >.,.p.                            ",
"                          &.,.1.O.  Q.-X;X2X2X;X-X;X-X;X;X;X2X=X  / ;.,.p.                          ",
"                      D >.,.,.E.  Y.!.W.W.:X;X;X;X;X|.W.[.[.[.2X%X  I ,.<.a.                        ",
"                D %.,.,.,.,.8.    Q.Q.-X;X;X*X}.}.-X;X;X;X;X;X4X4X    K =.,.,.e.E.                  ",
"          K =.<.,.,.,.2.4.        Q.;X;X;X;X`.`.-X-X;X;X;X;X;X;X4X        K $.,.<.,.e.u.8.          ",
"      ..,.,.>.9.8.              Y.'.;X;X;X;X;X;X;X;X;X;X;X;X;X;X;X2X            A K X.>.,.y.E.      ",
"    ( >.O.                      Q.&X;X;X;X;X;X;X;X;X;X;X;X;X;X;X;X4X                      I >./.    ",
"    =.,.E.                      Q.-X;X;X;X;X;X;X;X;X;X;X*X`.-X;X;X3X                       .<.a.    ",
"  P >.,.,.[                   D.Q.;X;X;X;X;X;X;X;X;X;X;X;X;X-X;X;X2X=X                    ,.<.r.^.  ",
"  / ,.,.a.).                  Q.Q.;X;X;X;X;X;X;X;X-X;X;X;X2X-X;X;X2X4X                  &.,.,.,.).  ",
"I / ,.r.*.(.                  Q.Q.-X:XT.-.>.=.I S ,.>.e.r.9.~.-X;X;X4X                  / A ;.,.e.^.",
"F U ( *.) e.                  Q.w.:.>.,.,.,.,.P >.,.,.,.,.,.1.p.i.{.4X                  / A J ,.>.+.",
"  J / ,.,._                 ' ^ ,.,.,.,.,.,.,.,.3.,.,.,.,.,.<.,.<.(.t.                  H / I ,.O.  ",
"    J C / ~ #XU.            P / &.,.,.,.,.,.,.,.O.,.,.,.,.,.,.,.,.<.y.q.            H.K.  /  . .C   ",
"              K.,XOX        J / / X.>.<.,.,.,.,.O.,.,.,.,.,.,.,.,.,.<.9.        @X@XoX              ",
"                I.>XXX>XA.  4 9 Q I / / ( &.;.;.G <.,.,.,.,.<.,.3.` A.z.  >X<X<X+XL.                ",
"                   XI.1X$X<XF.w r r y x.a a 0 R 0 ! a ~ ~ z.C.C.Z.G.@X,X<X1X<X XJ.                  ",
"                    J.K.1X1XOXL.d.r y x.j.b.h.'.v.b.m.m.d.g.b.c.x.C.oX5X1X$XJ.m.                    ",
"                      M..X<X1XoXr r 7 w i b.i N.v.c.b.x.r w v.P.G.v.,X,XoXoX                        ",
"                          +X#X.Xw r w C.L.V.j.x.x.b.K.K.K.n.M.b.n.L.Z.L.+X                          ",
"                            Z.e r w w b.b.b.b.b.g.b.n.b.b.n.n.b.b.b.B.J.                            ",
"                            4 w w r w w e i x.b.x.n.b.b.w y g.b.b.b.b.i                             ",
"                              o 7 w r w w q 3 q u y 5 q i x.b.b.n.x.r                               ",
"                                2 w r r t t d.g.6 q c.b.b.b.b.b.b.j.                                ",
"                                  r w r d.b.b.b.6 g.c.c.b.b.b.b.b.x.                                ",
"                                  r r s.b.b.b.c.4 r b.b.b.x.b.b.b.x.                                ",
"                                  r r b.b.b.b.t 7 r b.b.b.v.b.b.b.t                                 ",
"                                  w r b.n.b.n.b.w w b.b.b.v.b.b.b.                                  ",
"                                  r t b.v.n.b.l.w w l.b.b.f.b.b.V.                                  ",
"                                  4 e t u K.b.s.7 w t b.b.t K.b.C.                                  ",
"                                    e e w g.u b.  w r b.d.i l.V.h.                                  ",
"                                  3 w w t w b.b.  6 x.w f.n.K.n.                                    ",
"                                  q r d.i b.b.b.    d.j.f.b.b.V.                                    ",
"                                  q e b.t l.M.b.  q e q q e b.V.                                    ",
"                                  q w s.u w d.G.  e q t p l.f.b.F.                                  ",
"                                  w 8 - - > n 0   7 + ; ; n < b.I.                                  ",
"                                  w # - - - c -   5 # - - ; n ; C.                                  ",
"                                  O # = - = > =   + $ = > l z > p                                   ",
"                          X   . X + , < > M M M 1 $ , < 1 z z z ,                                   "
};
