/* XPM */
static char *d345247f9295415e8fc46f0957bdacf5y2g9jgM6AUA17aQW[] = {
/* columns rows colors chars-per-pixel */
"80 103 109 2 ",
"   c None",
".  c #EF5626",
"X  c #F05526",
"o  c #F15728",
"O  c #F45B2B",
"+  c #F6622E",
"@  c #F76130",
"#  c #F96532",
"$  c #F56C32",
"%  c #FF6C36",
"&  c #FF6C3A",
"*  c #F77335",
"=  c #F87737",
"-  c #FF723B",
";  c #FE7B3C",
":  c #FD7242",
">  c #FC774A",
",  c #FC7B4E",
"<  c #FB7D52",
"1  c #FF813F",
"2  c #FF8540",
"3  c #FF8D43",
"4  c #FF9044",
"5  c #F9855D",
"6  c #FF9A55",
"7  c #F88B64",
"8  c #F88D68",
"9  c #F7916E",
"0  c #F79573",
"q  c #F69C7C",
"w  c #F59F81",
"e  c #F4A287",
"r  c #F4A58A",
"t  c #FEB380",
"y  c #F5B28F",
"u  c #F3AD95",
"i  c #F2B29B",
"p  c #EFBEAC",
"a  c #F1B6A1",
"s  c #F1B8A4",
"d  c #F0BDAB",
"f  c #EEC3B3",
"g  c #EFD7CC",
"h  c #ECD3CC",
"j  c #FEDDC6",
"k  c #EBD7D1",
"l  c #EBD8D0",
"z  c #EBD8D2",
"x  c #EBD8D3",
"c  c #EBDBD5",
"v  c #EADBD6",
"b  c #EBDBD7",
"n  c #EBDCDA",
"m  c #EADDDA",
"M  c #EBDDDB",
"N  c #EADFDB",
"B  c #FEE2CE",
"V  c #EAE0DE",
"C  c #EAE1DE",
"Z  c #EAE2DF",
"A  c #E9E5E4",
"S  c #E9E5E5",
"D  c #E9E6E6",
"F  c #E9E6E7",
"G  c #E9E7E7",
"H  c #E9E7E8",
"J  c #E8E8EA",
"K  c #E9E9EA",
"L  c #E9E8EB",
"P  c #E9E9EB",
"I  c #E8EAEC",
"U  c #E8EBED",
"Y  c #E9E9EF",
"T  c #E8EBEE",
"R  c #FEF0E5",
"E  c #FEF3EB",
"W  c #E8ECF1",
"Q  c #E8EDF1",
"!  c #E8EDF2",
"~  c #E8EDF3",
"^  c #E8EEF2",
"/  c #E8EEF3",
"(  c #E8EEF4",
")  c #E9EEF4",
"_  c #EAEEF4",
"`  c #EAEFF4",
"'  c #ECF0F5",
"]  c #EEF2F6",
"[  c #F1F4F7",
"{  c #FEF6F0",
"}  c #FDFAF7",
"|  c #F2F5F8",
" . c #F4F6F9",
".. c #F5F7F9",
"X. c #F8F9FA",
"o. c #F8FAFB",
"O. c #FDFAF8",
"+. c #FDFAF9",
"@. c #FEFBFA",
"#. c #FEFBFB",
"$. c #FEFCFA",
"%. c #FEFDFB",
"&. c #FAFBFC",
"*. c #FBFBFC",
"=. c gray99",
"-. c #FCFDFC",
";. c #FDFDFD",
":. c #FEFDFC",
">. c #FEFEFD",
/* pixels */
"                                                                              4 - &                                                                             ",
"                                                                            4 4 & & &                                                                           ",
"                                                                            4 3 & & &                                                                           ",
"                                                                            3 ; & & &                                                                           ",
"                                                                          4 4 & & & & &                                                                         ",
"                                                                          4 4 & & & & &                                                                         ",
"                                                                          4 2 & & & & &                                                                         ",
"                                                                        4 3 - & & & & & &                                                                       ",
"                                                                        4 4 & & & & & & &                                                                       ",
"                                                                        4 4 & & & & & & &                                                                       ",
"                                                                      3 4 : & & & & & & & &                                                                     ",
"                                                                      4 4 & & & & & & & & &                                                                     ",
"                                                                      4 4 & & & & & & & & &                                                                     ",
"                                                                    4 4 2 & & & & & & & & & &                                                                   ",
"                                                                    4 4 - & & & & & & & & & &                                                                   ",
"                                                                    4 4 & & & & & & & & & & &                                                                   ",
"                                                                    4 4 & & & & & & & & & & &                                                                   ",
"                                                                  4 4 : & & & & & & & & & & & &                                                                 ",
"                                                                  4 4 & & & & & & & & & & & & &                                                                 ",
"                                                                  4 3 & & & & & & & & & & & & &                                                                 ",
"                                                                4 4 2 - & & & & & & & & & & & & &                                                               ",
"                                                                { 6 - & & & & & & & & & & % & < T                                                               ",
"                                                                >.>.V 7 % % & & & & & & % 0 A ~ /                                                               ",
"                                                              O.>.>./ / ( ( H M x M H ( ~ ~ ~ ~ / Y                                                             ",
"                                                              >.>.[ ~ ~ ~ ~ ~ ~ ~ ~ ~ ~ ~ ~ ~ ~ / (                                                             ",
"                                                              >.>.! ~ ~ ~ ~ ~ ~ ~ ~ ~ ~ ~ ~ ~ ~ / /                                                             ",
"                                                            O.>.>.~ ~ ~ ~ ~ ~ ~ ~ ~ ~ ~ ~ ~ ~ ~ / ~ J                                                           ",
"                                                            >.>.X.! ~ ~ ~ ~ ~ ~ ~ ~ ~ ~ ~ ~ ~ ~ ~ ~ /                                                           ",
"                                                            >.>.( ~ ~ ~ ~ ~ ~ ~ ~ ~ ~ ~ ~ ~ ~ ~ ~ ~ ~                                                           ",
"                                                          O.>.>.( ~ ~ ~ ~ ~ ~ ~ ~ ~ ~ ~ ~ ~ ~ ~ ~ ~ /                                                           ",
"                                                          >.>.>.( / ~ ~ ~ ~ ~ ~ ~ ~ ~ ~ ~ ~ ~ ~ ~ ~ / ~                                                         ",
"                                                          >.>.[ ~ ~ ~ ~ ~ ~ ~ ~ ~ ~ ~ ~ ~ ~ ~ ~ ~ ~ ~ ~                                                         ",
"                                                          >.>./ ~ ~ ~ ~ ~ ~ ~ ~ ~ ~ ~ ~ ~ ~ ~ ~ ~ ~ ~ ~                                                         ",
"                                                        R >.>.! ~ ~ ~ ~ ~ ~ ~ ~ ~ ~ ~ ~ ~ ~ ~ ~ ~ ~ ~ ~ h                                                       ",
"                                                        4 E o.! ~ ~ ~ ~ ~ ~ ~ ~ ~ ~ ~ ~ ~ ~ ~ ~ ( ( ~ k &                                                       ",
"                                                        4 4 g ' ~ ~ ~ ~ ~ ~ ~ ~ ~ ~ ~ ~ ~ ~ ~ ~ ( ( p & &                                                       ",
"                                                      4 4 4 % 9 ( ( ( ( ~ ~ ~ ~ ~ ~ ~ ~ ( ( ( Y Y 7 & & & &                                                     ",
"                                                      4 4 4 & & & 9 V ( ~ ~ ~ ~ ~ ~ ~ ~ ( ( b 7 & & & & & &                                                     ",
"                                                      4 4 > & & % & & % : 7 r i s i w 7 & & & & & & & & & &                                                     ",
"                                                    4 4 4 & & & & & & & & & & % & & & & & & & & & & & & & & %                                                   ",
"                                                    4 4 4 & & & & & & & & & & & & & & & & & & & & & & & & & &                                                   ",
"                                                    4 4 3 & & & & & & & & & & & & & & & & & & & & & & & & & &                                                   ",
"                                                  4 4 4 : & & & & & & & & & & & & & & & & & & & & & & & & & &                                                   ",
"                                                  4 4 4 % & & & & & & & & & & & & & & & & & & & & & & & & & & &                                                 ",
"                                                  4 4 3 & & & & & & & & & & & & & & & & & & & & & & & & & & & &                                                 ",
"                                                4 4 4 2 & & & & & & & & & & & & & & & & & & & & & & & & & & & &                                                 ",
"                                                4 4 4 & & & & & & & & & & & & & & & & & & & & & & & & & & & & & &                                               ",
"                                                3 4 4 & & & & & & & & & & & & & & & & & & & & & & & & & & & & & %                                               ",
"                                                B 4 2 & & & & & & & & & & & & & & & & & & & & & & & & & & & & & n                                               ",
"                                              >.>.j ; & & & & & & & & & & & & & & & & & & & & & & & & & & & & k ( ~                                             ",
"                                              >.>.>.x & & & & & & & & & & & & & & & & & & & & & & & & & % % S ~ ~ (                                             ",
"                                              >.>.>.( ( 7 & & % & & & & & & & & & & & & & & & & & & & & q / ~ ~ ~ ~                                             ",
"                                            =.>.>. .~ ~ ~ F 7 % & % & & & & & & & & & & & & & & & & 0 L ~ ~ ~ ~ / / J                                           ",
"                                            >.>.>.( ~ ~ ~ ~ ~ / h 9 : % & % & & & & & & % % : 0 x ( ~ ~ ~ ~ ~ ~ ~ / (                                           ",
"                                            >.>.>./ / ~ ~ ~ ~ ~ ( ( ( ( ~ H A x k x A L / ~ ~ ~ ( ( ( ~ ~ ~ ~ ~ ~ ~ /                                           ",
"                                          $.>.>.*.( ~ ~ ~ ~ ~ ~ Y ( ( Y ~ ~ ~ ( ( ~ ( ( ~ ~ ~ ~ ( ( ~ ~ ~ ~ ~ ~ ~ ~ /                                           ",
"                                          >.>.>.' ~ ~ ~ ~ ~ ~ ~ ~ ~ ~ ~ ~ ~ ~ ~ ~ ~ ~ ~ ~ ~ ~ ~ ~ ~ ~ ~ ~ ~ ~ ~ ~ ~ ~ ~                                         ",
"                                          >.>.>.( ~ ~ ~ ~ ~ ~ ~ ~ ~ ~ ~ ~ ~ ~ ~ ~ ~ ~ ~ ~ ~ ~ ~ ~ ~ ~ ~ ~ ~ ~ ~ ~ ~ ~ ~                                         ",
"                                        O.>.>.;.( ( ~ ~ ~ ~ ~ ~ ~ ~ ~ ~ ~ ~ ~ ~ ~ ~ ~ ~ ~ ~ ~ ~ ~ ~ ~ ~ ~ ~ ~ ~ ~ ~ ~ ~                                         ",
"                                        >.>.>.X.( ( ~ ~ ~ ~ ~ ~ ~ ~ ~ ~ ~ ~ ~ ~ ~ ~ ~ ~ ~ ~ ~ ~ ~ ~ ~ ~ ~ ~ ~ ~ ~ ~ ~ ~ /                                       ",
"                                        O.>.>./ ( ( ( ( ~ ~ ~ ~ ~ ~ ~ ~ ~ ~ ~ ~ ~ ~ ~ ~ ~ ~ ~ ~ ~ ~ ~ ~ ~ ~ ~ ~ ~ ~ ~ ~ F                                       ",
"                                      3 6 >.>./ Y ( ~ Y ~ ~ ~ ~ ~ ~ ~ ~ ~ ~ ~ ~ ~ ~ ~ ~ ~ ~ ~ ~ ~ ~ ~ ~ ~ ~ ~ ~ ~ ~ ~ ~ &                                       ",
"                                      4 4 t *./ ~ ~ ~ ~ ~ ~ ~ ~ ~ ~ ~ ~ ~ ~ ~ ~ ~ ~ ~ ~ ~ ~ ~ ~ ~ ~ ~ ~ ~ ~ ~ ~ ~ ~ / 5 & &                                     ",
"                                      4 4 4 u ~ ~ ~ ~ ~ ~ ~ ~ ~ ~ ~ ~ ~ ~ ~ ~ ~ ~ ~ ~ ~ ~ ~ ~ ~ ~ ~ ~ ~ ~ ~ ~ ~ ~ ~ 0 & & &                                     ",
"                                      4 4 4 & w ( / ~ ~ ~ ~ ~ ~ ~ ~ ~ ~ ~ ~ ~ ~ ~ ~ ~ ~ ~ ~ ~ ~ ~ ~ ~ ~ ~ ~ ~ ~ ~ 7 & & & &                                     ",
"                                    4 4 4 3 & & < / ~ ~ ~ ~ ~ ~ ~ ~ ~ ~ ~ ~ ~ ~ ~ ~ ~ ~ ~ ~ ~ ~ ~ ~ ~ ~ ~ ~ ~ Y > & & & & & &                                   ",
"                                  4 4 4 4 2 & & % & p ~ ~ ~ ~ ~ ~ ~ ~ ~ ~ ~ ~ ~ ~ ~ ~ ~ ~ ~ ~ ~ ~ ~ ~ ~ ~ ~ u & & & & & & & &                                   ",
"                              4 4 4 4 4 3 - & & % & & & p ~ ~ ~ ~ ~ ~ ~ ~ ~ ~ ~ ~ ~ ~ ~ ~ ~ ~ ~ ~ ~ ~ ~ i & & & & & & & & & & X X                               ",
"                          4 4 4 4 4 4 4 4 & & & & & & & % & < d L ~ ~ ~ ( ( ~ ~ ~ ~ ~ ~ ~ ~ ~ ~ F s > % & & & & & & & & & & & O X X X                           ",
"                        4 4 4 4 4 4 4 4 3 & & & & & & & & & & & & & : , 8 w u a s i u w 7 , & & & & & & & & & & & & & & & & & & X X X X                         ",
"                    4 4 4 4 4 4 4 4 4 4 ; & & & & & & & & & & & & & & & & & & & & & & & & & & & & & & & & & & & & & & & & & & & X X X X X X                     ",
"                4 4 4 4 4 4 4 4 4 4 4 4 & & & & & & & & & & & & & & & & & & & & & & & & & & & & & & & & & & & & & & & & & & & & X X X X X X X X                 ",
"            4 4 4 4 4 4 4 4 4 4 4 4 4 4 & & & & & & & & & & & & & & & & & & & & & & & & & & & & & & & & & & & & & & & & & & & & X X X X X X X X X O             ",
"        4 4 4 4 4 4 4 4 4 4 4 4 4 4 4 2 & & & & & & & & & & & & & & & & & & & & & & & & & & & & & & & & & & & & & & & & & & & & X X X X X X X X X X X .         ",
"    4 4 4 4 4 4 4 4 4 4 4 4 4 4 4 4 4 - & & & & & & & & & & & & & & & & & & & & & & & & & & & & & & & & & & & & & & & & & & & & X X X X X X X X X X X X X X     ",
"  4 4 4 4 4 4 4 4 4 4 4 4 4 4 4 4 4 3 & & & & & & & & & & & & & & & & & & & & & & & & & & & & & & & & & & & & & & & & & & & & # X X X X X X X X X X X X X X X   ",
"; 3 4 4 4 4 4 4 4 4 4 4 4 4 4 4 4 4 3 & & & & & & & & & & & & & & & & & & & & & & & & & & & & & & & & & & & & & & & & & & & & X X X X X X X X X X X X X X X X # ",
"% ; 4 4 4 4 4 4 4 4 4 4 4 4 4 4 4 4 2 & & & & & & & & & & & & & & & & & & & & & & & & & & & & & & & & & & & & & & & & & & & O X X X X X X X X X X X . . X X @ % ",
"% % % 2 4 4 4 4 4 4 4 4 4 4 4 4 4 4 4 2 & & & & & & & & & & & & & & & & & & & & & & & & & & & & & & & & & & & & & & & & & O X X X X X X X X X X X X X . O % % % ",
"% % % % % 3 4 4 4 4 4 4 4 4 4 4 4 4 4 4 ; & & & & & & & & & & & & & & & & & & & & & & & & & & & & & & & & & & & & & & & X X X X X X X X X X X X X X O % % % % % ",
"  % % % % % - 4 4 4 4 4 4 4 4 4 4 4 4 4 4 = + & & & & & & & & & & & & & & & & & & & & & & & & & & & & & & & & % & & + X X X X X X X X X X X X o . % % % % % %   ",
"    % % % % % % ; 4 4 4 4 4 4 4 4 4 4 4 4 4 = X O % & % & & & & & & & & & & & & & & & & & & & & & & & & & & & % O X X X X X X X X X X X X X X # % % % % % %     ",
"        % % % % % % 1 4 4 4 4 4 4 4 4 4 4 4 4 = . . . X @ & & & % & & & & & & & & & & & & & & & & & & % @ X X X X X X X X X X X X X X X X + % % % % % %         ",
"            % % % % % % 1 4 4 4 4 4 4 4 4 4 4 4 = . X X X X X X . O O O @ @ # # # # # # @ @ O o X X X X X X X X X X X X X X X X X X X O % % % % % %             ",
"              % % % % % % % 3 3 4 4 4 4 4 4 4 4 3 = X X X X X X X X X X X X X X o X X X X X X X X X X X X X X X X X X X X X X X X X % % % % % % %               ",
"                  % % % % % % ; 4 4 4 4 4 4 4 4 4 4 * X X X X X X X X X X X X X X X X X X X X X X X X X X X X X X X X X X X X X % % % % % % %                   ",
"                      % % % % % % : 4 4 4 4 4 4 4 4 4 = X X X X X X X X X X X X X X X X X X X X X X X X X X X X X X X X X X # % % % % % %                       ",
"                          % % % % % - 1 4 4 4 4 4 4 4 3 $ X X X X X X X X X X X X X X X X X X X X X X X X X X X X X X X O % % % % % %                           ",
"                            % % % % % % - 2 4 4 4 4 4 4 4 * X X X X X X X X X X X X X X X X X X X X X X X X X X X X O % % % % % % %                             ",
"                                % % % % % % - 4 4 4 4 4 4 4 $ X X X X X X X X X X X X X X X X X X X X X X X X X X % % % % % % %                                 ",
"                                    % % % % % % ; 3 4 4 4 4 4 $ X X X X X X X X X X X X X X X X X X X X X X X # % % % % % %                                     ",
"                                        % % % % % % > 4 4 4 4 4 $ X X X X X X X X X X X X X X X X X X X X @ % % % % % %                                         ",
"                                          % % % % % % % 1 1 4 4 4 $ X X X X X X X X X X X X X X X . X O % % % % % % %                                           ",
"                                              % % % % % - - 1 4 4 4 $ X X X X X X X X X X X X X X O % % % % % % %                                               ",
"                                                  % % % % % ; ; 3 4 4 $ X X X X X X X X X X X X # % % % % & %                                                   ",
"                                                      % % % % % % ; 4 3 $ X X X X X X X X X # % % % % % %                                                       ",
"                                                        % % % % % % % 1 4 $ . . X X . X + % % % % % % %                                                         ",
"                                                            % % % % % % - 2 + . X X O % % % % % % %                                                             ",
"                                                                % % % % % % % + o % % % % % % %                                                                 ",
"                                                                  % % % % % % % % % % % % % %                                                                   ",
"                                                                      % % % % % % % % % %                                                                       ",
"                                                                          % % % % % %                                                                           ",
"                                                                              % %                                                                               "
};
