/* XPM */
static char *result[] = {
/* columns rows colors chars-per-pixel */
"50 50 256 2 ",
"   c #8A2B2B",
".  c #96352D",
"X  c #973631",
"o  c #8B312A",
"O  c #913328",
"+  c #8B2C23",
"@  c #94312B",
"#  c #8D2828",
"$  c #903431",
"%  c #8D2E30",
"&  c #953736",
"*  c #84261E",
"=  c #9E3F34",
"-  c #9A3835",
";  c #AB886B",
":  c #943E30",
">  c #B85A43",
",  c #912C2E",
"<  c #9A3E38",
"1  c #A24437",
"2  c #BA674A",
"3  c #936250",
"4  c #852324",
"5  c #833532",
"6  c #C16B51",
"7  c #993D33",
"8  c #892621",
"9  c #842E2D",
"0  c #902D28",
"q  c #90382B",
"w  c #7E2B29",
"e  c #9F452F",
"r  c #A84B3F",
"t  c #82453F",
"y  c #B0654E",
"u  c #7C2822",
"i  c #852925",
"p  c #955A4A",
"a  c #C39168",
"s  c #742123",
"d  c #923D34",
"f  c #A3473D",
"g  c #741B1B",
"h  c #963231",
"j  c #9C443E",
"k  c #A73F3B",
"l  c #76241E",
"z  c #80211C",
"x  c #A33F35",
"c  c #B7714E",
"v  c #8B5C4D",
"b  c #CB8762",
"n  c #AD483D",
"m  c #7E3133",
"M  c #91272B",
"N  c #962C31",
"B  c #A67B68",
"V  c #6F2523",
"C  c #70201F",
"Z  c #9C3531",
"A  c #AC503E",
"S  c #8B1F1D",
"D  c #B76042",
"F  c #99392B",
"G  c #BA7F5A",
"H  c #C28762",
"J  c #986854",
"K  c #AF563D",
"L  c #833225",
"P  c #A14C34",
"I  c #CC9C79",
"U  c #9A402C",
"Y  c #7D3229",
"T  c #873027",
"R  c #7D4237",
"E  c #AD826C",
"W  c #9D332B",
"Q  c #8D483E",
"!  c #AA4836",
"~  c #76262A",
"^  c #BF9475",
"/  c #B28469",
"(  c #C67F63",
")  c #9E4139",
"_  c #9F382B",
"`  c #C68E73",
"'  c #CBA98E",
"]  c #974635",
"[  c #D0A07E",
"{  c #C1A988",
"}  c #916A58",
"|  c #A65747",
" . c #A66A53",
".. c #BE5F42",
"X. c #CBA87E",
"o. c #B18C6A",
"O. c #B39A76",
"+. c #C16847",
"@. c #C7976C",
"#. c #B26141",
"$. c #A4553D",
"%. c #A74F37",
"&. c #C17E5D",
"*. c #8C3331",
"=. c #A94F43",
"-. c #952C26",
";. c #A06E5D",
":. c #BF8163",
">. c #C67554",
",. c #B78974",
"<. c #AC5F4A",
"1. c #844C40",
"2. c #CA9476",
"3. c #C5947C",
"4. c #8A372A",
"5. c #944039",
"6. c #B44D39",
"7. c #773431",
"8. c #C17853",
"9. c #A23734",
"0. c #C88E67",
"q. c #8B2C28",
"w. c #AD4B46",
"e. c #8E2A1E",
"r. c #C0907A",
"t. c #8A3A34",
"y. c #D3AA80",
"u. c #9A4D31",
"i. c #D0A67B",
"p. c #8B4E42",
"a. c #BA9C81",
"s. c #A13E2B",
"d. c #C1855F",
"f. c #9A695B",
"g. c #C29C77",
"h. c #B08D74",
"j. c #AA5E40",
"k. c #CCB794",
"l. c #C6A37F",
"z. c #BD8C6B",
"x. c #8C634F",
"c. c #C8A684",
"v. c #CB795C",
"b. c #BD714A",
"n. c #A58467",
"m. c #734539",
"M. c #B56546",
"N. c #B05044",
"B. c #B69273",
"V. c #7F2326",
"C. c #D19068",
"Z. c #973725",
"A. c #9D4D3D",
"S. c #BF987D",
"D. c #6A2520",
"F. c #A88D75",
"G. c #7A3936",
"H. c #7B201E",
"J. c #CE9B72",
"K. c #A14F45",
"L. c #895148",
"P. c #D79D80",
"I. c #A3675B",
"U. c #D2AF86",
"Y. c #C1A07A",
"T. c #934F41",
"R. c #C18B73",
"E. c #DB966C",
"W. c #96725B",
"Q. c #815248",
"!. c #C5714E",
"~. c #681F1B",
"^. c #C48D64",
"/. c #A77467",
"(. c #AD7C5E",
"). c #B29E7F",
"_. c #DCBD91",
"`. c #D49F76",
"'. c #C1866B",
"]. c #B07953",
"[. c #BB795A",
"{. c #C8AF86",
"}. c #D39672",
"|. c #87554D",
" X c #BC7B53",
".X c #C29D80",
"XX c #C4775C",
"oX c #CAA075",
"OX c #D0AD91",
"+X c #BD594B",
"@X c #D09174",
"#X c #721917",
"$X c #DAB389",
"%X c #762D2A",
"&X c #CB9F87",
"*X c #AE6A49",
"=X c #895644",
"-X c #C07F6A",
";X c #DAA982",
":X c #B05844",
">X c #C38F6E",
",X c #CDA383",
"<X c #C8977A",
"1X c #D2BF9C",
"2X c #9A6E5B",
"3X c #853E38",
"4X c #B75F4B",
"5X c #8C4434",
"6X c #A27862",
"7X c #D3B68C",
"8X c #B36F54",
"9X c #A1775B",
"0X c #D1977D",
"qX c #B67059",
"wX c #D28464",
"eX c #B58560",
"rX c #C9856D",
"tX c #D8B294",
"yX c #BA836A",
"uX c #E1AA85",
"iX c #B99A75",
"pX c #BB8864",
"aX c #C59D88",
"sX c #A45E4D",
"dX c #B76750",
"fX c #9B2C2A",
"gX c #CCAF95",
"hX c #B77F62",
"jX c #DBB690",
"kX c #C0936D",
"lX c #C89B83",
"zX c #8A2329",
"xX c #E6CA9E",
"cX c #B17561",
"vX c #BD6551",
"bX c #9C7D62",
"nX c #B8967A",
"mX c #B5554A",
"MX c #99765F",
"NX c #873D2D",
"BX c #BA936E",
"VX c #D6A989",
"CX c #AF7B64",
"ZX c #B2947F",
"AX c #9F6250",
"SX c #C08556",
"DX c #C6825A",
"FX c #CB8257",
"GX c #CC8B74",
"HX c #BF7A65",
"JX c #C59974",
"KX c #7C4C42",
"LX c #C07257",
"PX c #CFA782",
"IX c #B9A885",
"UX c #EFBA92",
/* pixels */
"jXVXS.; O.O.O.O.iXY.{ { 1X1X{ .XO.iXiX{ ).F.o.BXa.a.B.^ ^ / B.OXjXjXg.; ; ).IXF./ ; B.a.).a.o.E B.' ",
"8.&.[.:.@X}.}.0.C.0.a X.1X_.i.}.2.@XGX2.r.'.HX( X.i.^.SXDXFXDXb DXb &.&.hX'.` ` 8. Xa X.{.JX&.8.b.v.",
"1 A = N.4XvX6 6 b.6 >.0.U.$XC.!.LXv.6 :X$.=.N.v.y.`.8.D > ..> > 4X> n N.1 K.A.f K ..XXI PXb 6 ..> > ",
". ) & < < & 7 7 ] r +XdX` [ [.2 $.vX+X= q X F XXP.rX=.n 9.k - & . - @ X $ j j < . k mX-X2.vXn e & & ",
"Z 7 7 q $ . . O < 9.k r -X` sX+Xf N.w.7 < - + y 0XqX: Z 9.k & $ O - = - X ) ) Z 7 9.1 8X'.:Xs.U h h ",
"N     V.  N h $ , M 0 ] R.<X] fX- Z h   % M 4 | r.cX5XT 0 h ,   , # N , % $ , N , # d cXR.| # , @ @ ",
"9 %X%X7.m m m m 9 4.NX3 .X&XAXT 9 9 5 G.m 9 u p S.r.;.Q 3Xt.5 5 5 w 5 5 m m m t.5 5 p r.&X/.5 9 Y 5 ",
";.MX} bXW.} 2XW.2X;.B a.gX{ h.6X;.;.MXMXW.;.2Xh.l.OX.X; E n.6XW.x.2XB B } W.J 6X9X9Xo.PX7XY.W.J f./.",
"G ].pXGXCXnX{ ).o.pX}.C.0.a d.b -XR.{.{ Y./ 2.;X[ J.@.@.l.3.'.b SX^.0.` .Xa.{ ^ G  X( b H >X>X[.G G ",
"U u.$.K $.d.y.@.b.D ....D #.K D 2 c `.;XH j.#.c D +.+.M.| A.r > ..+.2 K :.i.y.].P e e e U u.$.u.e e ",
"z q.q.S e.<.@Xd.! _ W _ _ Z . @ s.u.d.}.$.e.e.o -.W W -.# 4 , x W _ _ Z.$.2.>Xu.S S 8 8 z * * H.# zX",
"M % % S * A.-X .0 i 4 4 4 #   V.S L  .R.j M N i # # 8 8   $ & < & % # @ : GXHX: M ,     # #   *.4 4 ",
"S 4 zXS * A.'. .  V.u T 0 -.0 z M 4. .rX< # 8 H.V.i i 8 8 0 . U 5.: O Z.: GXHX: z z H.z 8 8 8 0 8 8 ",
"l l l l l 3 r.B 3XC ~.Y NX4.L * s G.CX3.p C ~.~.~.V ~ ~ g l L L Y NXNXL p aXS.p.~.D.D.V s s s s s s ",
"m.m.m.R 1.E gX' f.R R =Xv x.p p 1.J &XtX; KXm.m.t Q.|.|.1.L.v v } x.=X=Xh.1X1X; Q.Q.Q.KXm.m.m.t R R ",
"nXnXo.yXyXJXI I g./ <XU.k.k.c.lXI J.;Xi.X.B.S.r.a g.l.Y.BXg.Y.iX{ c.lX[ $X7X_.uXX.y.;XPXY.O.B.z.^ ^ ",
"{.i. Xb.b.+.!.6 yX-X( [ _.7X2.XXwXwXFXDXb rXXXv.>.v.wX( &.b @.l.y.a ^.E.E.C.E.E.C.E.E.E.}.b 8.FX^.;X",
"c.:.A ! > 6.n r P A 4XDX;Xi.c ..> > > K 1 < 7 = s.x A K D D c [ 0X*Xy >.2 6 v.2 2 6 vX:X:XD > 6.+.>.",
"&XsXZ 9.w.) h & % - r y 0X2.$.6.N.! n x @ h & & h h < =.+X6.K 2.-X| r mXN.:XdX<.+X4X<.=.A mX+X+X6.> ",
",X| fXfX- o o X - ) r <.2.` ] _ X O O @ @ Z X . & $ 9 *.X fXK.r.qX] O x x 1 =.r 1 ] ] ] = k n N._ A ",
"l. .q # H.l Y 4.d d d sX3.r.T.H.C s ~ u i + * 8 V.H.C C #Xz sXaX-XNXz q.* q.d i u Y 7.Y w   q.i L | ",
"' nX;.AXL.3 2Xf.;.3 p E ' ' E t KXQ.Q.KXp.Q 5XQ 1.R R =X1.p.E ' lXf.p.p.t 1.1.R Q.|.v v L.t t L.3 ,.",
",Xc.c.r.r.' k.gXPXkXeX@.y.X.kX]./ ,.ZXh.E CXCXE h.(.].eX(.hXI PX,X3.,.h.ZXZXF.; ; E / ,.,.B B ,.eX[ ",
"6 G @.G H ;XjXjXGX( LX8.8.c b.!.#.&.[ I ].*X*X8X(.c M.M.#.M.!.b.b.*X].pX^ ,X,Xz.].c #.M.&.d.[.c 2 6 ",
". ) =.k 1 qXP.'.=.1 ! s.%.r e s._ P HX@XA.O @ 4.$ 7 P Z.O h . F s.: O n | I >X| 9.q : @ = | j Z O O ",
"0 T q . o T.z.9X4.q U U : 4.: q F : cXR.T.8 S z i O e U . - X F F 4.4.. ] <XyX] + * * + + T o 0 q.i ",
"% 9     u p 3.CXt.T X *.5 u t.L o 5.yXlXAX$ , # + O = = X - - < o w 9 z d 3.R.T.z H.H.zXV.s w 4 w V.",
"m G.R 7.R E gXa.p 5 Q 3Xt t L.Q G.p aXgXB T.Q 3Xt Q p.Q 5X5Xt t p.t R 7.I.' aX3 7.%X7.G.7.G.G.7.G.7.",
"MXbXn.6Xn.{.k.7Xh.9X/ ; ZX).ZXh.9X; OX{.o./ ; ; F.F.F.E n.n.n.n.; h.; ; c.k.k.O.bXW.bXn.F.F.n.6XbXMX",
"pXJX[ ^.H J.@.`.kXz.@.U.xXxX_.JXa H C.d.SXC.a g.{.U.g.z.a JXi.oXa `.J.`.`.@.oXy.a eXoX_.xX$Xa @.a pX",
"A dXLX6 D 2 2 6 LX>.8.`.xXxX}.2 4X> ..+.+.+.%.<.[ }. Xj.j.6 ( 8.!.>.6 v.>.>.XX( 2 #.XXuXUXC.D +.6 D ",
", & < mXr : ) f w.N.:X[.[ VXdX! X W x =.r x S w.R.H j.O q.j w.= U f =.mX1 r =.K.1 F P :.2.y Z.s.w.k ",
"N o T & & 9 *.) 5XA.) <.3.,Xu.e.i i o : : + 4 w.hXy 7 9.N zX9 u w $ $ & h h O : < ) ]  .R.K.+ $ & $ ",
", o o 0 , % $ = 1 n k <.` [ | W 9   $ q o $ i K.:.8XU F N h u u l i $ @ @ -.. . x @ F qXGX:Xe.0 N , ",
"D.D.D.s ~ ~ V %XY w t.I.' OXI.9 m m m ~ s %X~.t ,.,. .3X~.V D.p /.1.%Xs C V ~ C s l Q ,.lXI.%XV s s ",
";.f.f.I.I.} x.} } J /.nXk.k.a.B /./.B B /.f.=X2X.X' S.9Xv 3 x.,.aXB v 3 v } } f.J f.h.gXgXa.} v 3 J ",
"( :.:.( rX<Xl.Y.kXG &.b J.oXVXtXJ.X.7X{.Y.eXG H ^.0.^.d.H H G d.H d.:.[.>Xc.c.z.&.G a oXI i.z.hX[.&.",
"e P P P j.0.$Xi.XX%.! 6.> M.y y j.H $X_.J.c #.%.P %.#.D 2 K K K e u.P e ( U.VXG A %.M.2 #.j.u.e ! ! ",
"+ $ *.  4. .[ '.f + X - x f j j = y I uX[.A x @ $ X = r N.) 7 : @ q q @ <.3.JXj.-.O f w.r 5.$ Z , , ",
"0 & *., + $.rXqX= + 5.& $ < X - 1 $.:.P.y A . % % , e.Z k = O = Z f - W ] <X` P -.4.j f w.j 5.- $ o ",
"7 $   N # K.rXy X i o       $ $ Z A.yX0Xy - q.u Y 9 *.  i q ! 6.k n n = f 0X3.| X - f f 1 = 1 f 1 X ",
"*.w w % 5 I.S./ Q V V C ~ ~ w V.V.T.r.&XI.w C C D.~ ~ ~ w 5 5.< 5.d d q | &XlXsXt.t.5.5.d t.d d d q ",
"f.3 3 p J O.k.{ B v v |.|.L.1.p.p.6XaX' h.v 1.L.v 3 L.=Xv x.3 x.} x.=XT.E ' ' (.v x.J J 3 3 J J 3 J ",
"IXIXiXkXoXU.7Xy.oXBX^ S.a.O.o.eX(.>X[ X.X.o.(.(./ z.pXkXg.Y.c.).{ O./ hX.Xc.VX^ o.B.^ ^ BXBXg.g.O.' ",
"1X$XH  Xb b FXwXSX Xc z.U.U.pX*X2 >.!.#.c *XM.2 2 2 +.>. Xb uXjXjXz.dXvX:.y vXdX8X8XqX8Xy *Xc c H uX",
"tXGX%.U %.%.A > K 6.s.<.0X[ <.Z.1 n _ e.e.Z.F s.! ! 6.6.u.K wX$XP.j._ x A Z._ F + + + + * * + O %.v.",
",Xy @ O : 7 7 7 = W -.e '.` q S O @ q.# @ . + 8 8 + 9.Z 4.F 4Xl.hXq S + o z * * * 4 4 4 4 4     * e ",
"[ u.-.-.. x k x 5.X U A.>X<Xq W , #   - k k . O # # fXM o W n l. .@ fX$ zX4   , 0 # 0 M # # # # 0 < ",
"&Xp L %   9 d A.K.< j sXS..XAX*.C V V 9 d j j j 5.$ *.%   L T.R. .5XT V.w w 5 % % % % % % % o o T K.",
"tXcXY g g l L L L * 4. .tXtX;.u Y t 3Xt.u l l u u g #X#X#Xu AXVX3.Q #X#Xs C g g g g g #Xg g g #XY cX"
};
